<?xml version="1.0" standalone="no"?>
<!DOCTYPE svg PUBLIC "-//W3C//DTD SVG 1.1//EN" "http://www.w3.org/Graphics/SVG/1.1/DTD/svg11.dtd">
<!--Generator: Xara Designer (www.xara.com), SVG filter version: 6.4.0.3-->
<svg fill="none" fill-rule="evenodd" stroke="black" stroke-width="0.501" stroke-linejoin="bevel" stroke-miterlimit="10" font-family="Times New Roman" font-size="16" style="font-variant-ligatures:none" xmlns:xlink="http://www.w3.org/1999/xlink" xmlns="http://www.w3.org/2000/svg" version="1.1" overflow="visible" width="255.845pt" height="123.322pt" viewBox="0 -123.322 255.845 123.322">
 <defs>
	</defs>
 <g id="Layer 1" transform="scale(1 -1)">
  <path d="M 107.188,79.018 C 107.386,78.994 107.58,78.94 107.762,78.859 C 107.941,78.774 108.106,78.663 108.252,78.529 C 108.44,78.349 108.616,78.158 108.78,77.955 L 123.492,59.358 C 123.432,59.95 123.393,60.531 123.364,61.088 C 123.336,61.644 123.322,62.176 123.322,62.672 L 123.322,79.079 L 129.655,79.079 L 129.655,48.109 L 125.913,48.109 C 125.433,48.095 124.956,48.182 124.513,48.364 C 124.073,48.581 123.693,48.902 123.407,49.3 L 108.801,67.73 C 108.847,67.195 108.879,66.667 108.907,66.149 C 108.936,65.632 108.953,65.146 108.953,64.692 L 108.953,48.091 L 102.616,48.091 L 102.616,79.079 L 106.398,79.079 C 106.662,79.076 106.926,79.056 107.188,79.018 Z" fill="#013243" stroke="none" stroke-width="0.354" fill-rule="nonzero" stroke-linejoin="miter" marker-start="none" marker-end="none"/>
  <path d="M 138.934,70.158 L 138.934,56.172 C 138.934,55.08 139.182,54.237 139.679,53.641 C 140.233,53.023 141.04,52.693 141.869,52.748 C 142.571,52.744 143.265,52.896 143.9,53.195 C 144.571,53.52 145.191,53.943 145.739,54.45 L 145.739,70.158 L 152.328,70.158 L 152.328,48.116 L 148.249,48.116 C 147.515,48.055 146.839,48.516 146.629,49.222 L 146.228,50.498 C 145.814,50.096 145.373,49.722 144.91,49.378 C 144.455,49.046 143.966,48.763 143.453,48.531 C 142.913,48.287 142.349,48.099 141.77,47.971 C 141.128,47.831 140.473,47.763 139.817,47.769 C 138.721,47.749 137.634,47.962 136.627,48.396 C 135.723,48.797 134.92,49.395 134.277,50.147 C 133.624,50.928 133.132,51.832 132.831,52.805 C 132.495,53.893 132.33,55.026 132.342,56.165 L 132.342,70.158 Z" fill="#013243" stroke="none" stroke-width="0.354" fill-rule="nonzero" stroke-linejoin="miter" marker-start="none" marker-end="none"/>
  <path d="M 156.578,48.109 L 156.578,70.158 L 160.661,70.158 C 161.024,70.171 161.384,70.075 161.692,69.881 C 161.978,69.682 162.185,69.388 162.277,69.052 L 162.631,67.861 C 162.989,68.24 163.371,68.596 163.776,68.924 C 164.175,69.245 164.606,69.522 165.063,69.754 C 166.067,70.263 167.18,70.522 168.306,70.509 C 169.494,70.555 170.661,70.191 171.612,69.477 C 172.508,68.755 173.194,67.805 173.597,66.727 C 173.947,67.379 174.403,67.969 174.948,68.471 C 175.463,68.94 176.043,69.333 176.67,69.637 C 177.291,69.936 177.947,70.157 178.623,70.296 C 179.299,70.437 179.988,70.508 180.679,70.509 C 181.822,70.528 182.96,70.337 184.035,69.945 C 184.97,69.598 185.811,69.037 186.491,68.308 C 187.174,67.546 187.685,66.647 187.99,65.671 C 188.347,64.524 188.519,63.327 188.501,62.126 L 188.501,48.119 L 181.908,48.119 L 181.908,62.116 C 181.908,64.398 180.931,65.538 178.977,65.536 C 178.146,65.563 177.341,65.243 176.755,64.653 C 176.167,64.07 175.873,63.224 175.873,62.116 L 175.873,48.109 L 169.291,48.109 L 169.291,62.116 C 169.291,63.378 169.043,64.264 168.547,64.774 C 168.05,65.284 167.32,65.536 166.356,65.536 C 165.769,65.537 165.19,65.4 164.666,65.135 C 164.115,64.85 163.61,64.484 163.166,64.051 L 163.166,48.102 Z" fill="#013243" stroke="none" stroke-width="0.354" fill-rule="nonzero" stroke-linejoin="miter" marker-start="none" marker-end="none"/>
  <path d="M 199.516,58.462 L 199.516,48.109 L 192.332,48.109 L 192.332,79.079 L 203.255,79.079 C 205.159,79.121 207.058,78.861 208.88,78.309 C 210.302,77.874 211.618,77.15 212.747,76.183 C 213.741,75.307 214.51,74.206 214.991,72.972 C 215.476,71.697 215.716,70.342 215.699,68.977 C 215.716,67.526 215.464,66.084 214.955,64.724 C 214.472,63.453 213.692,62.316 212.68,61.407 C 211.553,60.424 210.232,59.69 208.802,59.252 C 207.007,58.695 205.135,58.429 203.255,58.462 Z M 199.516,63.881 L 203.255,63.881 C 205.127,63.881 206.474,64.324 207.296,65.221 C 208.118,66.117 208.529,67.347 208.529,68.96 C 208.538,69.619 208.43,70.274 208.21,70.895 C 208.007,71.462 207.676,71.975 207.243,72.394 C 206.774,72.832 206.215,73.162 205.605,73.362 C 204.847,73.607 204.053,73.726 203.255,73.716 L 199.516,73.716 Z" fill="#013243" stroke="none" stroke-width="0.354" fill-rule="nonzero" stroke-linejoin="miter" marker-start="none" marker-end="none"/>
  <path d="M 228.466,42.388 C 228.316,42.012 228.072,41.68 227.757,41.424 C 227.345,41.186 226.87,41.078 226.396,41.116 L 221.452,41.116 L 225.705,50.04 L 216.908,70.158 L 222.731,70.158 C 223.157,70.179 223.577,70.054 223.922,69.803 C 224.192,69.595 224.398,69.315 224.517,68.995 L 228.129,59.493 C 228.463,58.637 228.74,57.759 228.958,56.867 C 229.1,57.32 229.256,57.767 229.426,58.203 C 229.596,58.639 229.759,59.089 229.915,59.543 L 233.19,69.002 C 233.314,69.343 233.55,69.632 233.86,69.821 C 234.174,70.034 234.544,70.148 234.923,70.151 L 240.24,70.151 Z" fill="#013243" stroke="none" stroke-width="0.354" fill-rule="nonzero" stroke-linejoin="miter" marker-start="none" marker-end="none"/>
  <path d="M 46.918,89.155 L 33.759,95.797 L 19.312,88.588 L 32.83,81.801 L 46.918,89.155 Z" fill="#4dabcf" stroke="none" stroke-width="0.354" fill-rule="nonzero" stroke-linejoin="miter" marker-start="none" marker-end="none"/>
  <path d="M 52.954,86.11 L 66.752,79.142 L 52.437,71.955 L 38.898,78.752 L 52.954,86.11 Z" fill="#4dabcf" stroke="none" stroke-width="0.354" fill-rule="nonzero" stroke-linejoin="miter" marker-start="none" marker-end="none"/>
  <path d="M 71.384,95.698 L 85.561,88.588 L 72.88,82.222 L 59.054,89.197 L 71.384,95.698 Z" fill="#4dabcf" stroke="none" stroke-width="0.354" fill-rule="nonzero" stroke-linejoin="miter" marker-start="none" marker-end="none"/>
  <path d="M 65.281,98.76 L 52.518,105.161 L 39.894,98.859 L 53.046,92.228 L 65.281,98.76 Z" fill="#4dabcf" stroke="none" stroke-width="0.354" fill-rule="nonzero" stroke-linejoin="miter" marker-start="none" marker-end="none"/>
  <path d="M 55.304,43.803 L 55.304,26.386 L 70.764,34.102 L 70.75,51.526 L 55.304,43.803 Z" fill="#4dabcf" stroke="none" stroke-width="0.354" fill-rule="nonzero" stroke-linejoin="miter" marker-start="none" marker-end="none"/>
  <path d="M 70.743,57.607 L 70.725,74.847 L 55.304,67.18 L 55.304,49.934 L 70.743,57.607 Z" fill="#4dabcf" stroke="none" stroke-width="0.354" fill-rule="nonzero" stroke-linejoin="miter" marker-start="none" marker-end="none"/>
  <path d="M 89.304,60.836 L 89.304,43.352 L 76.116,36.774 L 76.105,54.177 L 89.304,60.836 Z" fill="#4dabcf" stroke="none" stroke-width="0.354" fill-rule="nonzero" stroke-linejoin="miter" marker-start="none" marker-end="none"/>
  <path d="M 89.304,66.95 L 89.304,84.083 L 76.091,77.516 L 76.102,60.241 L 89.304,66.95 Z" fill="#4dabcf" stroke="none" stroke-width="0.354" fill-rule="nonzero" stroke-linejoin="miter" marker-start="none" marker-end="none"/>
  <path d="M 49.846,67.18 L 39.433,72.419 L 39.433,49.792 C 39.433,49.792 26.695,76.892 25.518,79.327 C 25.366,79.642 24.742,79.986 24.582,80.071 C 22.286,81.269 15.594,84.657 15.594,84.657 L 15.594,44.667 L 24.852,39.705 L 24.852,60.617 C 24.852,60.617 37.452,36.402 37.583,36.136 C 37.714,35.871 38.972,33.322 40.326,32.426 C 42.123,31.231 49.839,26.592 49.839,26.592 Z" fill="#4d77cf" stroke="none" stroke-width="0.354" fill-rule="nonzero" stroke-linejoin="miter" marker-start="none" marker-end="none"/>
 </g>
</svg>
