<svg width="500" height="500" viewBox="0 0 500 500" fill="none" xmlns="http://www.w3.org/2000/svg">
<path d="M220.93 127.14L151.77 92.2301L75.8701 130.11L146.9 165.78L220.93 127.14Z" fill="#4DABCF"/>
<path d="M252.63 143.14L325.14 179.74L249.91 217.52L178.77 181.79L252.63 143.14Z" fill="#4DABCF"/>
<path d="M349.47 92.76L423.96 130.11L357.34 163.57L284.68 126.92L349.47 92.76Z" fill="#4DABCF"/>
<path d="M317.41 76.67L250.35 43.05L184.01 76.1501L253.11 111L317.41 76.67Z" fill="#4DABCF"/>
<path d="M264.98 365.44V456.95L346.22 416.41L346.13 324.86L264.98 365.44Z" fill="#4DABCF"/>
<path d="M346.1 292.91L346.01 202.32L264.98 242.6V333.22L346.1 292.91Z" fill="#4DABCF"/>
<path d="M443.63 275.93V367.8L374.34 402.38L374.29 310.93L443.63 275.93Z" fill="#4DABCF"/>
<path d="M443.63 243.81V153.79L374.21 188.3L374.27 279.07L443.63 243.81Z" fill="#4DABCF"/>
<path d="M236.3 242.6L181.58 215.09V334C181.58 334 114.66 191.61 108.46 178.82C107.66 177.17 104.37 175.36 103.53 174.92C91.5301 168.62 56.3701 150.81 56.3701 150.81V360.89L105.01 386.89V277.08C105.01 277.08 171.22 404.31 171.89 405.7C172.56 407.09 179.21 420.5 186.31 425.21C195.77 431.47 236.31 455.85 236.31 455.85L236.3 242.6Z" fill="#4D77CF"/>
</svg>
