<svg width="500" height="500" viewBox="0 0 500 500" fill="none" xmlns="http://www.w3.org/2000/svg">
<path d="M220.56 127.09L151.4 92.1799L75.5 130.06L146.53 165.73L220.56 127.09Z" fill="#4DABCF"/>
<path d="M252.26 143.09L324.77 179.69L249.54 217.47L178.4 181.74L252.26 143.09Z" fill="#4DABCF"/>
<path d="M349.1 92.71L423.59 130.06L356.97 163.52L284.31 126.87L349.1 92.71Z" fill="#4DABCF"/>
<path d="M317.04 76.62L249.98 43L183.64 76.1001L252.74 110.95L317.04 76.62Z" fill="#4DABCF"/>
<path d="M264.61 365.39V456.9L345.85 416.36L345.76 324.81L264.61 365.39Z" fill="#4DABCF"/>
<path d="M345.73 292.86L345.64 202.27L264.61 242.55V333.17L345.73 292.86Z" fill="#4DABCF"/>
<path d="M443.26 275.88V367.75L373.97 402.33L373.92 310.88L443.26 275.88Z" fill="#4DABCF"/>
<path d="M443.26 243.76V153.74L373.84 188.25L373.9 279.02L443.26 243.76Z" fill="#4DABCF"/>
<path d="M235.93 242.55L181.21 215.04V333.95C181.21 333.95 114.29 191.56 108.09 178.77C107.29 177.12 104 175.31 103.16 174.87C91.16 168.57 56 150.76 56 150.76V360.84L104.64 386.84V277.03C104.64 277.03 170.85 404.26 171.52 405.65C172.19 407.04 178.84 420.45 185.94 425.16C195.4 431.42 235.94 455.8 235.94 455.8L235.93 242.55Z" fill="#4D77CF"/>
</svg>
