<svg width="150" height="150" viewBox="0 0 150 150" fill="none" xmlns="http://www.w3.org/2000/svg">
<path d="M66.2792 38.1419L45.5312 27.6689L22.7612 39.0329L44.0702 49.7339L66.2792 38.1419Z" fill="#4DABCF"/>
<path d="M75.7889 42.9419L97.5419 53.9219L74.9729 65.2559L53.6309 54.5369L75.7889 42.9419Z" fill="#4DABCF"/>
<path d="M104.841 27.8279L127.188 39.0329L107.202 49.0709L85.4038 38.0759L104.841 27.8279Z" fill="#4DABCF"/>
<path d="M95.2231 23.001L75.1051 12.915L55.2031 22.8451L75.9331 33.3L95.2231 23.001Z" fill="#4DABCF"/>
<path d="M79.4941 109.632V137.085L103.866 124.923L103.839 97.458L79.4941 109.632Z" fill="#4DABCF"/>
<path d="M103.83 87.873L103.803 60.696L79.4941 72.78V99.966L103.83 87.873Z" fill="#4DABCF"/>
<path d="M133.089 82.7791V110.34L112.302 120.714L112.287 93.2791L133.089 82.7791Z" fill="#4DABCF"/>
<path d="M133.089 73.143V46.137L112.263 56.49L112.281 83.721L133.089 73.143Z" fill="#4DABCF"/>
<path d="M70.8901 72.7799L54.4741 64.5269V100.2C54.4741 100.2 34.3981 57.4829 32.5381 53.6459C32.2981 53.1509 31.3111 52.6079 31.0591 52.4759C27.4591 50.5859 16.9111 45.2429 16.9111 45.2429V108.267L31.5031 116.067V83.1239C31.5031 83.1239 51.3661 121.293 51.5671 121.71C51.7681 122.127 53.7631 126.15 55.8931 127.563C58.7311 129.441 70.8931 136.755 70.8931 136.755L70.8901 72.7799Z" fill="#4D77CF"/>
</svg>
