<?xml version="1.0" encoding="UTF-8" standalone="no"?><!DOCTYPE svg PUBLIC "-//W3C//DTD SVG 1.1//EN" "http://www.w3.org/Graphics/SVG/1.1/DTD/svg11.dtd"><svg width="100%" height="100%" viewBox="0 0 24 24" version="1.1" xmlns="http://www.w3.org/2000/svg" xmlns:xlink="http://www.w3.org/1999/xlink" xml:space="preserve" xmlns:serif="http://www.serif.com/" style="fill-rule:evenodd;clip-rule:evenodd;stroke-linejoin:round;stroke-miterlimit:2;"><path d="M7.5,2l0,2.4l-4.1,0l-0,15.1l4.3,0l0,2.5l-6.7,0l0,-20l6.5,0Zm15.5,0l0,20l-6.7,0l0,-2.5l4.2,0l0,-15.1l-4.1,0l0,-2.4l6.6,-0Zm-13.9,12c0.607,0 1.1,0.493 1.1,1.1c0,0.607 -0.493,1.1 -1.1,1.1c-0.607,0 -1.1,-0.493 -1.1,-1.1c0,-0.607 0.493,-1.1 1.1,-1.1Zm5.6,0c0.607,0 1.1,0.493 1.1,1.1c0,0.607 -0.493,1.1 -1.1,1.1c-0.607,0 -1.1,-0.493 -1.1,-1.1c0,-0.607 0.493,-1.1 1.1,-1.1Zm-2.8,0c0.607,0 1.1,0.493 1.1,1.1c0,0.607 -0.493,1.1 -1.1,1.1c-0.607,0 -1.1,-0.493 -1.1,-1.1c0,-0.607 0.493,-1.1 1.1,-1.1Z" style="fill:#013243;"/></svg>