<?xml version="1.0" encoding="UTF-8" standalone="no"?><!DOCTYPE svg PUBLIC "-//W3C//DTD SVG 1.1//EN" "http://www.w3.org/Graphics/SVG/1.1/DTD/svg11.dtd"><svg width="100%" height="100%" viewBox="0 0 24 24" version="1.1" xmlns="http://www.w3.org/2000/svg" xmlns:xlink="http://www.w3.org/1999/xlink" xml:space="preserve" xmlns:serif="http://www.serif.com/" style="fill-rule:evenodd;clip-rule:evenodd;stroke-linejoin:round;stroke-miterlimit:2;"><path d="M15,14c2.7,0 8,1.3 8,4l0,2l-16,0l0,-2c0,-2.7 5.3,-4 8,-4Zm0,-10c2.208,0 4,1.792 4,4c0,2.208 -1.792,4 -4,4c-2.208,0 -4,-1.792 -4,-4c0,-2.208 1.792,-4 4,-4Zm-9,6l3,0l0,2l-3,0l0,3l-2,0l0,-3l-3,0l0,-2l3,0l0,-3l2,0l0,3Z" style="fill:#013243;"/></svg>