<?xml version="1.0" encoding="UTF-8" standalone="no"?><!DOCTYPE svg PUBLIC "-//W3C//DTD SVG 1.1//EN" "http://www.w3.org/Graphics/SVG/1.1/DTD/svg11.dtd"><svg width="100%" height="100%" viewBox="0 0 24 24" version="1.1" xmlns="http://www.w3.org/2000/svg" xmlns:xlink="http://www.w3.org/1999/xlink" xml:space="preserve" xmlns:serif="http://www.serif.com/" style="fill-rule:evenodd;clip-rule:evenodd;stroke-linejoin:round;stroke-miterlimit:2;"><path d="M17.7,11.563l-0.9,-0.9l-2.1,2.1l1.6,1.6c0.5,0.4 0.5,1.4 0,1.8l-5.2,5.2c-0.5,0.5 -1.5,0.5 -2,-0c-0.5,-0.5 -0.5,-1.5 0,-2l4.1,-4.1l-1.8,-1.8l-2,2c-0.2,0.2 -0.6,0.4 -0.9,0.4l-6.1,-0c-0.7,-0 -1.4,-0.7 -1.4,-1.4c0,-0.7 0.7,-1.5 1.4,-1.4l5.4,-0l5,-5l-4.5,-0c-0.6,-0 -1.2,-0.6 -1.2,-1.2c0,-0.6 0.6,-1.2 1.2,-1.2l6.3,-0c0.3,-0 0.7,0.1 0.9,0.4l3.5,3.5l2.8,-0c0.6,-0 1.2,0.6 1.2,1.2c0,0.6 -0.6,1.2 -1.2,1.2l-3.2,-0c-0.3,-0 -0.7,-0.1 -0.9,-0.4Zm1.4,-9.3c1.49,-0 2.7,1.209 2.7,2.7c0,1.49 -1.21,2.7 -2.7,2.7c-1.49,-0 -2.7,-1.21 -2.7,-2.7c0,-1.491 1.21,-2.7 2.7,-2.7Z" style="fill:#013243;"/></svg>