<svg xmlns="http://www.w3.org/2000/svg" xml:space="preserve" style="fill-rule:evenodd;clip-rule:evenodd;stroke-linejoin:round;stroke-miterlimit:2" viewBox="0 0 24 24"><path d="m17.7 11.563-.9-.9-2.1 2.1 1.6 1.6c.5.4.5 1.4 0 1.8l-5.2 5.2c-.5.5-1.5.5-2 0s-.5-1.5 0-2l4.1-4.1-1.8-1.8-2 2c-.2.2-.6.4-.9.4H2.4c-.7 0-1.4-.7-1.4-1.4s.7-1.5 1.4-1.4h5.4l5-5H8.3c-.6 0-1.2-.6-1.2-1.2s.6-1.2 1.2-1.2h6.3c.3 0 .7.1.9.4l3.5 3.5h2.8c.6 0 1.2.6 1.2 1.2s-.6 1.2-1.2 1.2h-3.2c-.3 0-.7-.1-.9-.4m1.4-9.3a2.7 2.7 0 0 1 0 5.4 2.7 2.7 0 0 1 0-5.4" style="fill:#013243"/></svg>