<?xml version="1.0" encoding="UTF-8" standalone="no"?><!DOCTYPE svg PUBLIC "-//W3C//DTD SVG 1.1//EN" "http://www.w3.org/Graphics/SVG/1.1/DTD/svg11.dtd"><svg width="100%" height="100%" viewBox="0 0 24 24" version="1.1" xmlns="http://www.w3.org/2000/svg" xmlns:xlink="http://www.w3.org/1999/xlink" xml:space="preserve" xmlns:serif="http://www.serif.com/" style="fill-rule:evenodd;clip-rule:evenodd;stroke-linejoin:round;stroke-miterlimit:2;"><g><path d="M21,4c0.75,0.25 1.4,0.55 2,1l0,14.6c0,0.25 -0.25,0.5 -0.5,0.5c-0.1,0 -0.15,0 -0.25,-0.05c-1.4,-0.75 -3.1,-1.05 -4.75,-1.05c-1.7,0 -4.15,0.65 -5.5,1.5c-1.45,-1.1 -3.55,-1.5 -5.5,-1.5c-1.45,0 -3.4,0.45 -4.75,1.1c-0.1,-0 -0.15,0.05 -0.25,0.05c-0.25,-0 -0.5,-0.25 -0.5,-0.5l0,-14.65c1.45,-1.1 3.55,-1.5 5.5,-1.5c1.95,-0 4.05,0.4 5.5,1.5c1.45,-1.1 3.55,-1.5 5.5,-1.5c1.17,-0 2.39,0.15 3.5,0.5Zm0,13.5l0,-11.5c-1.1,-0.35 -2.3,-0.5 -3.5,-0.5c-1.7,0 -4.15,0.65 -5.5,1.5l0,11.5c1.35,-0.85 3.8,-1.5 5.5,-1.5c1.2,0 2.4,0.15 3.5,0.5Zm-3.5,-8c-1.8,0 -3.37,0.35 -4.5,0.99l0,-1.66c1.26,-0.54 2.8,-0.83 4.5,-0.83c0.86,0 1.71,0.09 2.5,0.24l0,1.52c-0.77,-0.17 -1.62,-0.26 -2.5,-0.26Zm-4.5,1.99c1.26,-0.53 2.8,-0.83 4.5,-0.83c0.86,0 1.71,0.09 2.5,0.24l0,1.52c-0.77,-0.17 -1.62,-0.26 -2.5,-0.26c-1.8,0 -3.37,0.35 -4.5,0.99l0,-1.66Zm4.5,1.84c0.86,0 1.71,0.08 2.5,0.24l0,1.52c-0.77,-0.17 -1.62,-0.26 -2.5,-0.26c-1.8,0 -3.37,0.35 -4.5,0.99l0,-1.66c1.26,-0.54 2.8,-0.83 4.5,-0.83Z" style="fill:#013243;"/></g></svg>