<svg xmlns="http://www.w3.org/2000/svg" xml:space="preserve" style="fill-rule:evenodd;clip-rule:evenodd;stroke-linejoin:round;stroke-miterlimit:2" viewBox="0 0 24 24"><path d="M21 4c.75.25 1.4.55 2 1v14.6c0 .25-.25.5-.5.5-.1 0-.15 0-.25-.05-1.4-.75-3.1-1.05-4.75-1.05-1.7 0-4.15.65-5.5 1.5-1.45-1.1-3.55-1.5-5.5-1.5-1.45 0-3.4.45-4.75 1.1-.1 0-.15.05-.25.05-.25 0-.5-.25-.5-.5V5c1.45-1.1 3.55-1.5 5.5-1.5s4.05.4 5.5 1.5c1.45-1.1 3.55-1.5 5.5-1.5 1.17 0 2.39.15 3.5.5m0 13.5V6c-1.1-.35-2.3-.5-3.5-.5-1.7 0-4.15.65-5.5 1.5v11.5c1.35-.85 3.8-1.5 5.5-1.5 1.2 0 2.4.15 3.5.5m-3.5-8c-1.8 0-3.37.35-4.5.99V8.83c1.26-.54 2.8-.83 4.5-.83.86 0 1.71.09 2.5.24v1.52c-.77-.17-1.62-.26-2.5-.26M13 11.49c1.26-.53 2.8-.83 4.5-.83.86 0 1.71.09 2.5.24v1.52c-.77-.17-1.62-.26-2.5-.26-1.8 0-3.37.35-4.5.99zm4.5 1.84c.86 0 1.71.08 2.5.24v1.52c-.77-.17-1.62-.26-2.5-.26-1.8 0-3.37.35-4.5.99v-1.66c1.26-.54 2.8-.83 4.5-.83" style="fill:#013243"/></svg>