<svg width="300" height="135" viewBox="0 0 300 135" fill="none" xmlns="http://www.w3.org/2000/svg">
<path d="M124.334 51.9232C124.566 51.9522 124.793 52.0154 125.007 52.1101C125.216 52.2094 125.41 52.3398 125.58 52.4964C125.801 52.707 126.008 52.9317 126.199 53.1693L143.447 74.9645C143.377 74.2708 143.331 73.5896 143.298 72.9375C143.264 72.2853 143.248 71.6622 143.248 71.0807V51.8525H150.673V88.1488H146.285C145.723 88.165 145.164 88.0629 144.644 87.8498C144.129 87.5956 143.684 87.2188 143.348 86.7532L126.224 65.1532C126.278 65.7804 126.316 66.3993 126.349 67.0058C126.382 67.6122 126.403 68.1813 126.403 68.713V88.1696H118.974V51.8525H123.407C123.717 51.8559 124.027 51.8795 124.334 51.9232Z" fill="#4D77CF"/>
<path d="M162.881 62.3076V78.6987C162.881 79.9781 163.172 80.9667 163.753 81.6645C164.074 82.0222 164.472 82.3026 164.917 82.4841C165.361 82.6652 165.842 82.7429 166.321 82.7113C167.144 82.7167 167.958 82.5381 168.702 82.1879C169.49 81.8066 170.216 81.3111 170.859 80.7175V62.3076H178.583V88.1404H173.801C173.383 88.1749 172.967 88.0652 172.621 87.8293C172.276 87.5933 172.021 87.2457 171.902 86.8444L171.432 85.349C170.946 85.8196 170.43 86.2583 169.886 86.6616C169.352 87.05 168.78 87.3823 168.179 87.6544C167.545 87.9398 166.883 88.1599 166.205 88.3107C165.453 88.4744 164.685 88.5537 163.915 88.5475C162.631 88.5707 161.356 88.3202 160.176 87.8122C159.116 87.3428 158.174 86.6413 157.421 85.7602C156.655 84.8443 156.079 83.7855 155.726 82.6449C155.332 81.37 155.138 80.0412 155.152 78.707V62.3076H162.881Z" fill="#4D77CF"/>
<path d="M183.565 88.1488V62.3077H188.352C188.778 62.2923 189.2 62.4053 189.561 62.6317C189.896 62.8656 190.139 63.2095 190.247 63.6037L190.662 64.9994C191.081 64.5549 191.53 64.1383 192.004 63.7532C192.472 63.3777 192.977 63.0521 193.513 62.7812C194.69 62.1839 195.994 61.8803 197.314 61.8965C198.707 61.8421 200.076 62.2691 201.191 63.1052C202.241 63.9522 203.045 65.0654 203.518 66.3286C203.928 65.5639 204.463 64.8731 205.101 64.2849C205.705 63.7345 206.385 63.2743 207.121 62.9183C207.849 62.5677 208.618 62.3081 209.41 62.1457C210.203 61.9808 211.01 61.8973 211.82 61.8965C213.161 61.8732 214.495 62.0971 215.755 62.5569C216.851 62.9636 217.837 63.6207 218.634 64.476C219.435 65.3683 220.034 66.4225 220.392 67.5665C220.81 68.9107 221.012 70.3126 220.99 71.7203V88.1363H213.262V71.7328C213.262 69.0577 212.116 67.7214 209.826 67.7243C209.344 67.7089 208.864 67.7929 208.415 67.9706C207.967 68.1484 207.56 68.4168 207.22 68.7586C206.531 69.4428 206.186 70.4339 206.186 71.7328V88.1488H198.47V71.7328C198.47 70.254 198.179 69.2156 197.597 68.6174C197.015 68.0192 196.159 67.7243 195.029 67.7243C194.341 67.7227 193.662 67.8834 193.047 68.1937C192.401 68.5285 191.809 68.9568 191.29 69.4648V88.1571L183.565 88.1488Z" fill="#4D77CF"/>
<path d="M233.904 76.0153V88.1487H225.482V51.8524H238.288C240.52 51.8029 242.746 52.107 244.882 52.7537C246.549 53.2638 248.092 54.1125 249.415 55.246C250.581 56.272 251.483 57.5626 252.046 59.0094C252.615 60.504 252.897 62.092 252.877 63.6908C252.897 65.3918 252.601 67.082 252.004 68.6754C251.438 70.1654 250.523 71.4984 249.337 72.5634C248.016 73.7153 246.467 74.576 244.791 75.089C242.686 75.7411 240.491 76.0539 238.288 76.0153H233.904ZM233.904 69.6641H238.288C240.482 69.6641 242.061 69.1448 243.025 68.0939C243.989 67.043 244.471 65.6016 244.471 63.7116C244.481 62.9394 244.354 62.1718 244.097 61.4436C243.858 60.779 243.47 60.1775 242.963 59.6865C242.413 59.1731 241.758 58.786 241.043 58.5525C240.153 58.2655 239.223 58.1251 238.288 58.1371H233.904V69.6641Z" fill="#4D77CF"/>
<path d="M267.844 94.8531C267.668 95.2947 267.382 95.6835 267.013 95.983C266.53 96.2625 265.973 96.3884 265.417 96.3444H259.621L264.607 85.885L254.294 62.3077H261.121C261.62 62.2824 262.113 62.429 262.517 62.7231C262.833 62.9674 263.075 63.2955 263.215 63.6702L267.449 74.8067C267.84 75.8102 268.165 76.8383 268.421 77.8847C268.587 77.353 268.77 76.8296 268.97 76.3187C269.169 75.8077 269.36 75.2802 269.543 74.7485L273.382 63.6619C273.527 63.2619 273.805 62.9238 274.168 62.7024C274.536 62.4531 274.97 62.3185 275.414 62.3161H281.647L267.844 94.8531Z" fill="#4D77CF"/>
<path d="M55.0055 40.0431L39.5776 32.2588L22.6414 40.7077L38.489 48.6623L55.0055 40.0431Z" fill="#4DABCF"/>
<path d="M62.0818 43.6113L78.2577 51.7778L61.4751 60.2018L45.6025 52.2347L62.0818 43.6113Z" fill="#4DABCF"/>
<path d="M83.6883 32.375L100.309 40.7076L85.4418 48.168L69.2327 39.9932L83.6883 32.375Z" fill="#4DABCF"/>
<path d="M76.5332 28.7863L61.5706 21.2844L46.77 28.67L62.1897 36.4418L76.5332 28.7863Z" fill="#4DABCF"/>
<path d="M64.8367 93.1958V113.608L82.9613 104.565L82.9447 84.1445L64.8367 93.1958Z" fill="#4DABCF"/>
<path d="M82.9364 77.0166L82.9156 56.8123L64.8367 65.797V86.0096L82.9364 77.0166Z" fill="#4DABCF"/>
<path d="M104.697 73.2324V93.7233L89.2354 101.433L89.2229 81.0375L104.697 73.2324Z" fill="#4DABCF"/>
<path d="M104.697 66.067V45.9873L89.2063 53.6844L89.2188 73.9302L104.697 66.067Z" fill="#4DABCF"/>
<path d="M58.4376 65.7968L46.2298 59.6574V86.1756C46.2298 86.1756 31.2963 54.4153 29.9168 51.5616C29.7381 51.1919 29.0068 50.789 28.8199 50.6893C26.1273 49.2853 18.2825 45.3142 18.2825 45.3142V92.1821L29.1357 97.9974V73.4897C29.1357 73.4897 43.9071 101.869 44.0609 102.18C44.2146 102.492 45.6897 105.479 47.2769 106.529C49.3836 107.929 58.4293 113.367 58.4293 113.367L58.4376 65.7968Z" fill="#4D77CF"/>
</svg>
