<svg width="722" height="325" viewBox="0 0 722 325" fill="none" xmlns="http://www.w3.org/2000/svg">
<path d="M299.23 124.76C299.789 124.83 300.335 124.982 300.85 125.21C301.354 125.449 301.819 125.763 302.23 126.14C302.761 126.647 303.259 127.188 303.72 127.76L345.23 180.23C345.06 178.56 344.95 176.92 344.87 175.35C344.79 173.78 344.75 172.28 344.75 170.88V124.59H362.62V211.97H352.06C350.708 212.009 349.362 211.763 348.11 211.25C346.87 210.638 345.799 209.731 344.99 208.61L303.78 156.61C303.91 158.12 304 159.61 304.08 161.07C304.16 162.53 304.21 163.9 304.21 165.18V212.02H286.33V124.59H297C297.746 124.598 298.491 124.655 299.23 124.76Z" fill="#4D77CF"/>
<path d="M392 149.76V189.22C392 192.3 392.7 194.68 394.1 196.36C394.872 197.221 395.829 197.896 396.9 198.333C397.97 198.769 399.126 198.956 400.28 198.88C402.26 198.893 404.218 198.463 406.01 197.62C407.905 196.702 409.654 195.509 411.2 194.08V149.76H429.79V211.95H418.28C417.276 212.033 416.274 211.769 415.442 211.201C414.61 210.633 413.998 209.796 413.71 208.83L412.58 205.23C411.41 206.363 410.168 207.419 408.86 208.39C407.575 209.325 406.198 210.125 404.75 210.78C403.225 211.467 401.633 211.997 400 212.36C398.19 212.754 396.342 212.945 394.49 212.93C391.398 212.986 388.33 212.383 385.49 211.16C382.939 210.03 380.673 208.341 378.86 206.22C377.016 204.015 375.63 201.466 374.78 198.72C373.832 195.651 373.366 192.452 373.4 189.24V149.76H392Z" fill="#4D77CF"/>
<path d="M441.78 211.97V149.76H453.3C454.326 149.723 455.34 149.995 456.21 150.54C457.016 151.103 457.6 151.931 457.86 152.88L458.86 156.24C459.869 155.17 460.948 154.167 462.09 153.24C463.215 152.336 464.432 151.552 465.72 150.9C468.553 149.462 471.693 148.731 474.87 148.77C478.222 148.639 481.516 149.667 484.2 151.68C486.727 153.719 488.661 156.399 489.8 159.44C490.786 157.599 492.074 155.936 493.61 154.52C495.063 153.195 496.7 152.087 498.47 151.23C500.223 150.386 502.074 149.761 503.98 149.37C505.888 148.973 507.831 148.772 509.78 148.77C513.007 148.714 516.217 149.253 519.25 150.36C521.888 151.339 524.262 152.921 526.18 154.98C528.106 157.128 529.549 159.666 530.41 162.42C531.416 165.656 531.902 169.031 531.85 172.42V211.94H513.25V172.45C513.25 166.01 510.493 162.793 504.98 162.8C503.82 162.763 502.665 162.965 501.586 163.393C500.507 163.821 499.528 164.467 498.71 165.29C497.05 166.937 496.22 169.323 496.22 172.45V211.97H477.65V172.45C477.65 168.89 476.95 166.39 475.55 164.95C474.15 163.51 472.09 162.8 469.37 162.8C467.713 162.796 466.079 163.183 464.6 163.93C463.046 164.736 461.621 165.767 460.37 166.99V211.99L441.78 211.97Z" fill="#4D77CF"/>
<path d="M562.93 182.76V211.97H542.66V124.59H573.48C578.852 124.471 584.208 125.203 589.35 126.76C593.361 127.988 597.075 130.031 600.26 132.76C603.065 135.23 605.235 138.337 606.59 141.82C607.959 145.418 608.638 149.241 608.59 153.09C608.638 157.185 607.926 161.254 606.49 165.09C605.127 168.677 602.925 171.886 600.07 174.45C596.892 177.223 593.164 179.295 589.13 180.53C584.065 182.1 578.782 182.853 573.48 182.76H562.93ZM562.93 167.47H573.48C578.76 167.47 582.56 166.22 584.88 163.69C587.2 161.16 588.36 157.69 588.36 153.14C588.384 151.281 588.079 149.433 587.46 147.68C586.886 146.08 585.952 144.632 584.73 143.45C583.408 142.214 581.831 141.282 580.11 140.72C577.969 140.029 575.73 139.691 573.48 139.72H562.93V167.47Z" fill="#4D77CF"/>
<path d="M644.61 228.11C644.187 229.173 643.498 230.109 642.61 230.83C641.448 231.503 640.109 231.806 638.77 231.7H624.82L636.82 206.52L612 149.76H628.43C629.631 149.699 630.818 150.052 631.79 150.76C632.552 151.348 633.134 152.138 633.47 153.04L643.66 179.85C644.602 182.266 645.384 184.741 646 187.26C646.4 185.98 646.84 184.72 647.32 183.49C647.8 182.26 648.26 180.99 648.7 179.71L657.94 153.02C658.289 152.057 658.956 151.243 659.83 150.71C660.716 150.11 661.76 149.786 662.83 149.78H677.83L644.61 228.11Z" fill="#4D77CF"/>
<path d="M132.38 96.1599L95.2502 77.4199L54.4902 97.7599L92.6302 116.91L132.38 96.1599Z" fill="#4DABCF"/>
<path d="M149.41 104.75L188.34 124.41L147.95 144.69L109.75 125.51L149.41 104.75Z" fill="#4DABCF"/>
<path d="M201.41 77.6997L241.41 97.7597L205.63 115.72L166.62 96.0397L201.41 77.6997Z" fill="#4DABCF"/>
<path d="M184.19 69.06L148.18 51L112.56 68.78L149.67 87.49L184.19 69.06Z" fill="#4DABCF"/>
<path d="M156.04 224.12V273.26L199.66 251.49L199.62 202.33L156.04 224.12Z" fill="#4DABCF"/>
<path d="M199.6 185.17L199.55 136.53L156.04 158.16V206.82L199.6 185.17Z" fill="#4DABCF"/>
<path d="M251.97 176.06V225.39L214.76 243.95L214.73 194.85L251.97 176.06Z" fill="#4DABCF"/>
<path d="M251.97 158.81V110.47L214.69 129L214.72 177.74L251.97 158.81Z" fill="#4DABCF"/>
<path d="M140.64 158.16L111.26 143.38V207.22C111.26 207.22 75.32 130.76 72 123.89C71.57 123 69.81 122.03 69.36 121.79C62.88 118.41 44 108.85 44 108.85V221.68L70.12 235.68V176.68C70.12 176.68 105.67 245 106.04 245.75C106.41 246.5 109.96 253.69 113.78 256.22C118.85 259.59 140.62 272.68 140.62 272.68L140.64 158.16Z" fill="#4D77CF"/>
</svg>
