<svg width="722" height="325" viewBox="0 0 722 325" fill="none" xmlns="http://www.w3.org/2000/svg">
<path d="M299.23 125C299.789 125.07 300.335 125.222 300.85 125.45C301.354 125.689 301.819 126.003 302.23 126.38C302.761 126.887 303.259 127.428 303.72 128L345.23 180.47C345.06 178.8 344.95 177.16 344.87 175.59C344.79 174.02 344.75 172.52 344.75 171.12V124.83H362.62V212.21H352.06C350.708 212.249 349.362 212.003 348.11 211.49C346.87 210.878 345.799 209.971 344.99 208.85L303.78 156.85C303.91 158.36 304 159.85 304.08 161.31C304.16 162.77 304.21 164.14 304.21 165.42V212.26H286.33V124.83H297C297.746 124.838 298.491 124.895 299.23 125Z" fill="#4D77CF"/>
<path d="M392 150V189.46C392 192.54 392.7 194.92 394.1 196.6C394.872 197.461 395.829 198.136 396.9 198.573C397.97 199.009 399.126 199.196 400.28 199.12C402.26 199.133 404.218 198.703 406.01 197.86C407.905 196.942 409.654 195.749 411.2 194.32V150H429.79V212.19H418.28C417.276 212.273 416.274 212.009 415.442 211.441C414.61 210.873 413.998 210.036 413.71 209.07L412.58 205.47C411.41 206.603 410.168 207.659 408.86 208.63C407.575 209.565 406.198 210.365 404.75 211.02C403.225 211.707 401.633 212.237 400 212.6C398.19 212.994 396.342 213.185 394.49 213.17C391.398 213.226 388.33 212.623 385.49 211.4C382.939 210.27 380.673 208.581 378.86 206.46C377.016 204.255 375.63 201.706 374.78 198.96C373.832 195.891 373.366 192.692 373.4 189.48V150H392Z" fill="#4D77CF"/>
<path d="M441.78 212.21V150H453.3C454.326 149.963 455.34 150.235 456.21 150.78C457.016 151.343 457.6 152.171 457.86 153.12L458.86 156.48C459.869 155.41 460.948 154.407 462.09 153.48C463.215 152.576 464.432 151.792 465.72 151.14C468.553 149.702 471.693 148.971 474.87 149.01C478.222 148.879 481.516 149.907 484.2 151.92C486.727 153.959 488.661 156.639 489.8 159.68C490.786 157.839 492.074 156.176 493.61 154.76C495.063 153.435 496.7 152.327 498.47 151.47C500.223 150.626 502.074 150.001 503.98 149.61C505.888 149.213 507.831 149.012 509.78 149.01C513.007 148.954 516.217 149.493 519.25 150.6C521.888 151.579 524.262 153.161 526.18 155.22C528.106 157.368 529.549 159.906 530.41 162.66C531.416 165.896 531.902 169.271 531.85 172.66V212.18H513.25V172.69C513.25 166.25 510.493 163.033 504.98 163.04C503.82 163.003 502.665 163.205 501.586 163.633C500.507 164.061 499.528 164.707 498.71 165.53C497.05 167.177 496.22 169.563 496.22 172.69V212.21H477.65V172.69C477.65 169.13 476.95 166.63 475.55 165.19C474.15 163.75 472.09 163.04 469.37 163.04C467.713 163.036 466.079 163.423 464.6 164.17C463.046 164.976 461.621 166.007 460.37 167.23V212.23L441.78 212.21Z" fill="#4D77CF"/>
<path d="M562.93 183V212.21H542.66V124.83H573.48C578.852 124.711 584.208 125.443 589.35 127C593.361 128.228 597.075 130.271 600.26 133C603.065 135.47 605.235 138.577 606.59 142.06C607.959 145.658 608.638 149.481 608.59 153.33C608.638 157.425 607.926 161.494 606.49 165.33C605.127 168.917 602.925 172.126 600.07 174.69C596.892 177.463 593.164 179.535 589.13 180.77C584.065 182.34 578.782 183.093 573.48 183H562.93ZM562.93 167.71H573.48C578.76 167.71 582.56 166.46 584.88 163.93C587.2 161.4 588.36 157.93 588.36 153.38C588.384 151.521 588.079 149.673 587.46 147.92C586.886 146.32 585.952 144.872 584.73 143.69C583.408 142.454 581.831 141.522 580.11 140.96C577.969 140.269 575.73 139.931 573.48 139.96H562.93V167.71Z" fill="#4D77CF"/>
<path d="M644.61 228.35C644.187 229.413 643.498 230.349 642.61 231.07C641.448 231.743 640.109 232.046 638.77 231.94H624.82L636.82 206.76L612 150H628.43C629.631 149.939 630.818 150.292 631.79 151C632.552 151.588 633.134 152.378 633.47 153.28L643.66 180.09C644.602 182.506 645.384 184.981 646 187.5C646.4 186.22 646.84 184.96 647.32 183.73C647.8 182.5 648.26 181.23 648.7 179.95L657.94 153.26C658.289 152.297 658.956 151.483 659.83 150.95C660.716 150.35 661.76 150.026 662.83 150.02H677.83L644.61 228.35Z" fill="#4D77CF"/>
<path d="M132.38 96.4L95.2502 77.66L54.4902 98L92.6302 117.15L132.38 96.4Z" fill="#4DABCF"/>
<path d="M149.41 104.99L188.34 124.65L147.95 144.93L109.75 125.75L149.41 104.99Z" fill="#4DABCF"/>
<path d="M201.41 77.9399L241.41 97.9999L205.63 115.96L166.62 96.2799L201.41 77.9399Z" fill="#4DABCF"/>
<path d="M184.19 69.3L148.18 51.24L112.56 69.02L149.67 87.73L184.19 69.3Z" fill="#4DABCF"/>
<path d="M156.04 224.36V273.5L199.66 251.73L199.62 202.57L156.04 224.36Z" fill="#4DABCF"/>
<path d="M199.6 185.41L199.55 136.77L156.04 158.4V207.06L199.6 185.41Z" fill="#4DABCF"/>
<path d="M251.97 176.3V225.63L214.76 244.19L214.73 195.09L251.97 176.3Z" fill="#4DABCF"/>
<path d="M251.97 159.05V110.71L214.69 129.24L214.72 177.98L251.97 159.05Z" fill="#4DABCF"/>
<path d="M140.64 158.4L111.26 143.62V207.46C111.26 207.46 75.32 131 72 124.13C71.57 123.24 69.81 122.27 69.36 122.03C62.88 118.65 44 109.09 44 109.09V221.92L70.12 235.92V176.92C70.12 176.92 105.67 245.24 106.04 245.99C106.41 246.74 109.96 253.93 113.78 256.46C118.85 259.83 140.62 272.92 140.62 272.92L140.64 158.4Z" fill="#4D77CF"/>
</svg>
