<svg xmlns="http://www.w3.org/2000/svg" viewBox="0 0 721.86 324.74"><defs><style>.cls-1{fill:rgb(77, 119, 207);}.cls-2{fill:rgb(77, 171, 207);}</style></defs><g id="Layer_1" data-name="Layer 1"><path class="cls-1" d="M299.23,125a5.76,5.76,0,0,1,1.62.45,5.58,5.58,0,0,1,1.38.93,17,17,0,0,1,1.49,1.62l41.51,52.47c-.17-1.67-.28-3.31-.36-4.88s-.12-3.07-.12-4.47V124.83h17.87v87.38H352.06a9.68,9.68,0,0,1-3.95-.72,8.47,8.47,0,0,1-3.12-2.64l-41.21-52c.13,1.51.22,3,.3,4.46s.13,2.83.13,4.11v46.84H286.33V124.83H297A17.21,17.21,0,0,1,299.23,125Z"/><path class="cls-1" d="M392,150v39.46q0,4.62,2.1,7.14a7.62,7.62,0,0,0,6.18,2.52,13.26,13.26,0,0,0,5.73-1.26,21.37,21.37,0,0,0,5.19-3.54V150h18.59v62.19H418.28a4.39,4.39,0,0,1-4.57-3.12l-1.13-3.6a37.32,37.32,0,0,1-3.72,3.16,23.32,23.32,0,0,1-4.11,2.39A24.55,24.55,0,0,1,400,212.6a25,25,0,0,1-5.51.57,21.75,21.75,0,0,1-9-1.77,18.67,18.67,0,0,1-6.63-4.94,21.68,21.68,0,0,1-4.08-7.5,31,31,0,0,1-1.38-9.48V150Z"/><path class="cls-1" d="M441.78,212.21V150H453.3a5.13,5.13,0,0,1,2.91.78,4.21,4.21,0,0,1,1.65,2.34l1,3.36a33.22,33.22,0,0,1,3.23-3,20.83,20.83,0,0,1,3.63-2.34,19.68,19.68,0,0,1,9.15-2.13,14.6,14.6,0,0,1,9.33,2.91,18.14,18.14,0,0,1,5.6,7.76,18.71,18.71,0,0,1,3.81-4.92,20.42,20.42,0,0,1,4.86-3.29,23.69,23.69,0,0,1,5.51-1.86,28.63,28.63,0,0,1,5.8-.6,26.3,26.3,0,0,1,9.47,1.59,18.05,18.05,0,0,1,6.93,4.62,20.15,20.15,0,0,1,4.23,7.44,32,32,0,0,1,1.44,10v39.52h-18.6V172.69q0-9.66-8.27-9.65a8.46,8.46,0,0,0-6.27,2.49q-2.49,2.47-2.49,7.16v39.52H477.65V172.69q0-5.34-2.1-7.5c-1.4-1.44-3.46-2.15-6.18-2.15a10.53,10.53,0,0,0-4.77,1.13,17.72,17.72,0,0,0-4.23,3.06v45Z"/><path class="cls-1" d="M562.93,183v29.21H542.66V124.83h30.82A50.86,50.86,0,0,1,589.35,127a30.49,30.49,0,0,1,10.91,6,23.36,23.36,0,0,1,6.33,9.06,30.63,30.63,0,0,1,2,11.27,33.11,33.11,0,0,1-2.1,12,24.08,24.08,0,0,1-6.42,9.36,30,30,0,0,1-10.94,6.08A49.9,49.9,0,0,1,573.48,183Zm0-15.29h10.55c5.28,0,9.08-1.25,11.4-3.78s3.48-6,3.48-10.55a15.79,15.79,0,0,0-.9-5.46,11.11,11.11,0,0,0-2.73-4.23,12.41,12.41,0,0,0-4.62-2.73,20.71,20.71,0,0,0-6.63-1H562.93Z"/><path class="cls-1" d="M644.61,228.35a6.69,6.69,0,0,1-2,2.72,6.62,6.62,0,0,1-3.84.87H624.82l12-25.18L612,150h16.43a5.25,5.25,0,0,1,3.36,1,5.15,5.15,0,0,1,1.68,2.28l10.19,26.81A59,59,0,0,1,646,187.5c.4-1.28.84-2.54,1.32-3.77s.94-2.5,1.38-3.78l9.24-26.69a4.5,4.5,0,0,1,1.89-2.31,5.4,5.4,0,0,1,3-.93h15Z"/><polygon class="cls-2" points="132.38 96.4 95.25 77.66 54.49 98 92.63 117.15 132.38 96.4"/><polygon class="cls-2" points="149.41 104.99 188.34 124.65 147.95 144.93 109.75 125.75 149.41 104.99"/><polygon class="cls-2" points="201.41 77.94 241.41 98 205.63 115.96 166.62 96.28 201.41 77.94"/><polygon class="cls-2" points="184.19 69.3 148.18 51.24 112.56 69.02 149.67 87.73 184.19 69.3"/><polygon class="cls-2" points="156.04 224.36 156.04 273.5 199.66 251.73 199.62 202.57 156.04 224.36"/><polygon class="cls-2" points="199.6 185.41 199.55 136.77 156.04 158.4 156.04 207.06 199.6 185.41"/><polygon class="cls-2" points="251.97 176.3 251.97 225.63 214.76 244.19 214.73 195.09 251.97 176.3"/><polygon class="cls-2" points="251.97 159.05 251.97 110.71 214.69 129.24 214.72 177.98 251.97 159.05"/><path class="cls-1" d="M140.64,158.4l-29.38-14.78v63.84S75.32,131,72,124.13c-.43-.89-2.19-1.86-2.64-2.1C62.88,118.65,44,109.09,44,109.09V221.92l26.12,14v-59s35.55,68.32,35.92,69.07,3.92,7.94,7.74,10.47c5.07,3.37,26.84,16.46,26.84,16.46Z"/></g></svg>