<svg width="500" height="500" viewBox="0 0 500 500" fill="none" xmlns="http://www.w3.org/2000/svg">
<path d="M69.3601 351.63C69.9093 351.695 70.4455 351.844 70.9501 352.07C71.4499 352.307 71.9116 352.617 72.3201 352.99C72.8456 353.493 73.3398 354.027 73.8001 354.59L114.8 406.43C114.64 404.77 114.52 403.16 114.44 401.61C114.36 400.06 114.32 398.61 114.32 397.19V351.51H132V437.83H121.55C120.212 437.866 118.88 437.624 117.64 437.12C116.415 436.515 115.358 435.619 114.56 434.51L73.8601 383.09C73.9801 384.59 74.0801 386.06 74.1601 387.5C74.2301 388.94 74.2701 390.29 74.2701 391.56V437.83H56.6201V351.51H67.1601C67.8953 351.502 68.6302 351.542 69.3601 351.63Z" fill="#4D77CF"/>
<path d="M161 376.39V415.39C161 418.43 161.69 420.78 163.07 422.44C163.833 423.291 164.78 423.957 165.838 424.389C166.897 424.82 168.04 425.005 169.18 424.93C171.134 424.943 173.065 424.516 174.83 423.68C176.703 422.776 178.431 421.6 179.96 420.19V376.39H198.33V437.83H187C186.01 437.914 185.021 437.653 184.201 437.092C183.381 436.531 182.78 435.703 182.5 434.75L181.37 431.19C180.219 432.312 178.993 433.355 177.7 434.31C176.435 435.241 175.074 436.036 173.64 436.68C172.145 437.347 170.588 437.862 168.99 438.22C167.199 438.605 165.372 438.793 163.54 438.78C160.476 438.836 157.436 438.239 154.62 437.03C152.097 435.917 149.858 434.249 148.07 432.15C146.259 429.969 144.9 427.451 144.07 424.74C143.131 421.71 142.669 418.552 142.7 415.38V376.38L161 376.39Z" fill="#4D77CF"/>
<path d="M210.19 437.83V376.39H221.56C222.572 376.356 223.571 376.624 224.43 377.16C225.233 377.714 225.811 378.537 226.06 379.48L227.06 382.79C228.062 381.745 229.131 380.767 230.26 379.86C232.528 378.024 235.169 376.707 238 376C239.6 375.609 241.243 375.421 242.89 375.44C246.199 375.308 249.452 376.322 252.1 378.31C254.604 380.321 256.518 382.971 257.64 385.98C258.613 384.159 259.888 382.515 261.41 381.12C262.841 379.811 264.455 378.716 266.2 377.87C267.931 377.028 269.763 376.41 271.65 376.03C273.531 375.637 275.448 375.44 277.37 375.44C280.56 375.382 283.733 375.914 286.73 377.01C289.34 377.971 291.687 379.533 293.58 381.57C295.481 383.694 296.906 386.2 297.76 388.92C298.746 392.112 299.225 395.439 299.18 398.78V437.78H280.81V398.78C280.81 392.42 278.083 389.24 272.63 389.24C271.485 389.206 270.345 389.407 269.281 389.83C268.216 390.253 267.249 390.89 266.44 391.7C264.8 393.34 263.98 395.7 263.98 398.78V437.78H245.62V398.78C245.62 395.26 244.92 392.78 243.54 391.37C242.16 389.96 240.12 389.24 237.44 389.24C235.804 389.238 234.19 389.621 232.73 390.36C231.196 391.148 229.787 392.159 228.55 393.36V437.79L210.19 437.83Z" fill="#4D77CF"/>
<path d="M329.86 409V437.85H309.86V351.51H340.31C345.622 351.396 350.917 352.125 356 353.67C359.972 354.906 363.645 356.948 366.79 359.67C369.557 362.111 371.697 365.18 373.03 368.62C374.394 372.17 375.072 375.947 375.03 379.75C375.077 383.794 374.376 387.811 372.96 391.6C371.61 395.139 369.437 398.307 366.62 400.84C363.472 403.574 359.786 405.618 355.8 406.84C350.779 408.383 345.542 409.112 340.29 409H329.86ZM329.86 393.89H340.29C345.497 393.89 349.25 392.647 351.55 390.16C353.85 387.673 355 384.19 355 379.71C355.022 377.875 354.72 376.051 354.11 374.32C353.542 372.741 352.618 371.314 351.41 370.15C350.111 368.921 348.553 367.999 346.85 367.45C344.734 366.776 342.521 366.455 340.3 366.5H329.86V393.89Z" fill="#4D77CF"/>
<path d="M410.56 453.77C410.173 454.957 409.376 455.966 408.31 456.617C407.245 457.268 405.983 457.517 404.75 457.32H391L402.85 432.45L378.32 376.39H394.55C395.733 376.32 396.904 376.655 397.87 377.34C398.622 377.921 399.197 378.7 399.53 379.59L409.6 406.08C410.533 408.472 411.305 410.924 411.91 413.42C412.31 412.16 412.74 410.91 413.21 409.69C413.68 408.47 414.14 407.23 414.58 405.96L423.7 379.59C424.055 378.645 424.713 377.843 425.57 377.31C426.456 376.71 427.501 376.389 428.57 376.39H443.38L410.56 453.77Z" fill="#4D77CF"/>
<path d="M229.82 96.3399L181.83 72.1099L129.15 98.3999L178.44 123.16L229.82 96.3399Z" fill="#4DABCF"/>
<path d="M251.82 107.45L302.15 132.85L249.94 159.07L200.56 134.27L251.82 107.45Z" fill="#4DABCF"/>
<path d="M319.04 72.48L370.73 98.4L324.5 121.63L274.07 96.19L319.04 72.48Z" fill="#4DABCF"/>
<path d="M296.78 61.32L250.24 37.98L204.2 60.95L252.16 85.14L296.78 61.32Z" fill="#4DABCF"/>
<path d="M260.39 261.73V325.25L316.78 297.11L316.72 233.57L260.39 261.73Z" fill="#4DABCF"/>
<path d="M316.7 211.39L316.63 148.52L260.39 176.47V239.37L316.7 211.39Z" fill="#4DABCF"/>
<path d="M384.39 199.61V263.37L336.3 287.37L336.26 223.9L384.39 199.61Z" fill="#4DABCF"/>
<path d="M384.39 177.31V114.84L336.21 138.79L336.25 201.78L384.39 177.31Z" fill="#4DABCF"/>
<path d="M240.49 176.47L202.49 157.38V239.88C202.49 239.88 156.05 141.06 151.74 132.18C151.19 131.03 148.91 129.78 148.32 129.47C139.96 125.1 115.59 112.74 115.59 112.74V258.57L149.35 276.62V200.4C149.35 200.4 195.3 288.71 195.77 289.67C196.24 290.63 200.85 299.94 205.77 303.21C212.34 307.56 240.47 324.48 240.47 324.48L240.49 176.47Z" fill="#4D77CF"/>
</svg>
