<svg width="150" height="150" viewBox="0 0 150 150" fill="none" xmlns="http://www.w3.org/2000/svg">
<path d="M20.8081 105.489C20.9728 105.508 21.1337 105.553 21.2851 105.621C21.435 105.692 21.5735 105.785 21.6961 105.897C21.8537 106.048 22.002 106.208 22.1401 106.377L34.4401 121.929C34.3921 121.431 34.3561 120.948 34.3321 120.483C34.3081 120.018 34.2961 119.583 34.2961 119.157V105.453H39.6001V131.349H36.4651C36.0637 131.36 35.6641 131.287 35.2921 131.136C34.9246 130.954 34.6075 130.686 34.3681 130.353L22.1581 114.927C22.1941 115.377 22.2241 115.818 22.2481 116.25C22.2691 116.682 22.2811 117.087 22.2811 117.468V131.349H16.9861V105.453H20.1481C20.3686 105.451 20.5891 105.463 20.8081 105.489Z" fill="#4D77CF"/>
<path d="M48.3 112.917V124.617C48.3 125.529 48.507 126.234 48.921 126.732C49.1499 126.987 49.434 127.187 49.7514 127.317C50.0691 127.446 50.412 127.502 50.754 127.479C51.3402 127.483 51.9195 127.355 52.449 127.104C53.0109 126.833 53.5293 126.48 53.988 126.057V112.917H59.499V131.349H56.1C55.803 131.374 55.5063 131.296 55.2603 131.128C55.0143 130.959 54.834 130.711 54.75 130.425L54.411 129.357C54.0657 129.694 53.6979 130.007 53.31 130.293C52.9305 130.572 52.5222 130.811 52.092 131.004C51.6435 131.204 51.1764 131.359 50.697 131.466C50.1597 131.582 49.6116 131.638 49.062 131.634C48.1428 131.651 47.2308 131.472 46.386 131.109C45.6291 130.775 44.9574 130.275 44.421 129.645C43.8777 128.991 43.47 128.235 43.221 127.422C42.9393 126.513 42.8007 125.566 42.81 124.614V112.914L48.3 112.917Z" fill="#4D77CF"/>
<path d="M63.0569 131.349V112.917H66.4679C66.7715 112.907 67.0712 112.987 67.3289 113.148C67.5698 113.314 67.7432 113.561 67.8179 113.844L68.1179 114.837C68.4185 114.524 68.7392 114.23 69.0779 113.958C69.7583 113.407 70.5506 113.012 71.3999 112.8C71.8799 112.683 72.3728 112.626 72.8669 112.632C73.8596 112.592 74.8355 112.897 75.6299 113.493C76.3811 114.096 76.9553 114.891 77.2919 115.794C77.5838 115.248 77.9663 114.755 78.4229 114.336C78.8522 113.943 79.3364 113.615 79.8599 113.361C80.3792 113.108 80.9288 112.923 81.4949 112.809C82.0592 112.691 82.6343 112.632 83.2109 112.632C84.1679 112.615 85.1198 112.774 86.0189 113.103C86.8019 113.391 87.506 113.86 88.0739 114.471C88.6442 115.108 89.0717 115.86 89.3279 116.676C89.6237 117.634 89.7674 118.632 89.7539 119.634V131.334H84.2429V119.634C84.2429 117.726 83.4248 116.772 81.7889 116.772C81.4454 116.762 81.1034 116.822 80.7842 116.949C80.4647 117.076 80.1746 117.267 79.9319 117.51C79.4399 118.002 79.1939 118.71 79.1939 119.634V131.334H73.6859V119.634C73.6859 118.578 73.4759 117.834 73.0619 117.411C72.6479 116.988 72.0359 116.772 71.2319 116.772C70.7411 116.771 70.2569 116.886 69.8189 117.108C69.3587 117.344 68.936 117.648 68.5649 118.008V131.337L63.0569 131.349Z" fill="#4D77CF"/>
<path d="M98.958 122.7V131.355H92.958V105.453H102.093C103.687 105.419 105.275 105.637 106.8 106.101C107.992 106.472 109.094 107.084 110.037 107.901C110.867 108.633 111.509 109.554 111.909 110.586C112.318 111.651 112.522 112.784 112.509 113.925C112.523 115.138 112.313 116.343 111.888 117.48C111.483 118.542 110.831 119.492 109.986 120.252C109.042 121.072 107.936 121.685 106.74 122.052C105.234 122.515 103.663 122.734 102.087 122.7H98.958ZM98.958 118.167H102.087C103.649 118.167 104.775 117.794 105.465 117.048C106.155 116.302 106.5 115.257 106.5 113.913C106.507 113.362 106.416 112.815 106.233 112.296C106.063 111.822 105.785 111.394 105.423 111.045C105.033 110.676 104.566 110.4 104.055 110.235C103.42 110.033 102.756 109.936 102.09 109.95H98.958V118.167Z" fill="#4D77CF"/>
<path d="M123.168 136.131C123.052 136.487 122.813 136.79 122.493 136.985C122.174 137.18 121.795 137.255 121.425 137.196H117.3L120.855 129.735L113.496 112.917H118.365C118.72 112.896 119.071 112.997 119.361 113.202C119.587 113.376 119.759 113.61 119.859 113.877L122.88 121.824C123.16 122.542 123.392 123.277 123.573 124.026C123.693 123.648 123.822 123.273 123.963 122.907C124.104 122.541 124.242 122.169 124.374 121.788L127.11 113.877C127.217 113.594 127.414 113.353 127.671 113.193C127.937 113.013 128.25 112.917 128.571 112.917H133.014L123.168 136.131Z" fill="#4D77CF"/>
<path d="M68.9461 28.9021L54.5491 21.6331L38.7451 29.5201L53.5321 36.9481L68.9461 28.9021Z" fill="#4DABCF"/>
<path d="M75.546 32.2351L90.645 39.8551L74.982 47.7211L60.168 40.2811L75.546 32.2351Z" fill="#4DABCF"/>
<path d="M95.7119 21.7439L111.219 29.5199L97.3499 36.4889L82.2209 28.8569L95.7119 21.7439Z" fill="#4DABCF"/>
<path d="M89.034 18.396L75.072 11.394L61.26 18.285L75.648 25.542L89.034 18.396Z" fill="#4DABCF"/>
<path d="M78.1169 78.519V97.575L95.0339 89.133L95.0159 70.071L78.1169 78.519Z" fill="#4DABCF"/>
<path d="M95.0099 63.4169L94.9889 44.5559L78.1169 52.9409V71.8109L95.0099 63.4169Z" fill="#4DABCF"/>
<path d="M115.317 59.8831V79.0111L100.89 86.2111L100.878 67.1701L115.317 59.8831Z" fill="#4DABCF"/>
<path d="M115.317 53.1929V34.4519L100.863 41.6369L100.875 60.5339L115.317 53.1929Z" fill="#4DABCF"/>
<path d="M72.147 52.941L60.747 47.214V71.964C60.747 71.964 46.815 42.318 45.522 39.654C45.357 39.309 44.673 38.934 44.496 38.841C41.988 37.53 34.677 33.822 34.677 33.822V77.571L44.805 82.986V60.12C44.805 60.12 58.59 86.613 58.731 86.901C58.872 87.189 60.255 89.982 61.731 90.963C63.702 92.268 72.141 97.344 72.141 97.344L72.147 52.941Z" fill="#4D77CF"/>
</svg>
