<svg xmlns="http://www.w3.org/2000/svg" viewBox="0 0 500 500"><defs><style>.cls-1{fill:rgb(77, 119, 207);}.cls-2{fill:rgb(77, 171, 207);}</style></defs><g id="Layer_1" data-name="Layer 1"><path class="cls-1" d="M69.36,351.63a5.46,5.46,0,0,1,1.59.44,5.58,5.58,0,0,1,1.37.92,17.85,17.85,0,0,1,1.48,1.6l41,51.84c-.16-1.66-.28-3.27-.36-4.82s-.12-3-.12-4.42V351.51H132v86.32H121.55a9.69,9.69,0,0,1-3.91-.71,8.35,8.35,0,0,1-3.08-2.61l-40.7-51.42q.18,2.25.3,4.41c.07,1.44.11,2.79.11,4.06v46.27H56.62V351.51H67.16A17,17,0,0,1,69.36,351.63Z"/><path class="cls-1" d="M161,376.39v39q0,4.56,2.07,7.05a7.54,7.54,0,0,0,6.11,2.49,13,13,0,0,0,5.65-1.25,21.12,21.12,0,0,0,5.13-3.49V376.39h18.37v61.44H187a4.31,4.31,0,0,1-4.5-3.08l-1.13-3.56a35.28,35.28,0,0,1-3.67,3.12,22.21,22.21,0,0,1-4.06,2.37,24.63,24.63,0,0,1-4.65,1.54,25.07,25.07,0,0,1-5.45.56,21.61,21.61,0,0,1-8.92-1.75,18.31,18.31,0,0,1-6.55-4.88,21.4,21.4,0,0,1-4-7.41,30.59,30.59,0,0,1-1.37-9.36v-39Z"/><path class="cls-1" d="M210.19,437.83V376.39h11.37a5.1,5.1,0,0,1,2.87.77,4.09,4.09,0,0,1,1.63,2.32l1,3.31a33.63,33.63,0,0,1,3.2-2.93A20,20,0,0,1,238,376a19.66,19.66,0,0,1,4.89-.56,14.39,14.39,0,0,1,9.21,2.87,17.82,17.82,0,0,1,5.54,7.67,18.28,18.28,0,0,1,3.77-4.86,20.07,20.07,0,0,1,4.79-3.25,22.73,22.73,0,0,1,5.45-1.84,28,28,0,0,1,5.72-.59,25.87,25.87,0,0,1,9.36,1.57,17.7,17.7,0,0,1,6.85,4.56,20,20,0,0,1,4.18,7.35,31.93,31.93,0,0,1,1.42,9.86v39H280.81v-39q0-9.54-8.18-9.54a8.4,8.4,0,0,0-6.19,2.46c-1.64,1.64-2.46,4-2.46,7.08v39H245.62v-39c0-3.52-.7-6-2.08-7.41s-3.42-2.13-6.1-2.13a10.4,10.4,0,0,0-4.71,1.12,17.42,17.42,0,0,0-4.18,3v44.43Z"/><path class="cls-1" d="M329.86,409v28.85h-20V351.51h30.45A50.26,50.26,0,0,1,356,353.67a30.21,30.21,0,0,1,10.79,6,23.05,23.05,0,0,1,6.24,8.95,30.12,30.12,0,0,1,2,11.13,32.77,32.77,0,0,1-2.07,11.85,23.87,23.87,0,0,1-6.34,9.24,29.85,29.85,0,0,1-10.82,6A49.24,49.24,0,0,1,340.29,409Zm0-15.11h10.43q7.81,0,11.26-3.73T355,379.71a15.67,15.67,0,0,0-.89-5.39,10.94,10.94,0,0,0-2.7-4.17,12,12,0,0,0-4.56-2.7,20.26,20.26,0,0,0-6.55-.95H329.86Z"/><path class="cls-1" d="M410.56,453.77a5.24,5.24,0,0,1-5.81,3.55H391l11.85-24.87-24.53-56.06h16.23a5.21,5.21,0,0,1,3.32.95,5.1,5.1,0,0,1,1.66,2.25l10.07,26.49a57.53,57.53,0,0,1,2.31,7.34c.4-1.26.83-2.51,1.3-3.73s.93-2.46,1.37-3.73l9.12-26.37a4.58,4.58,0,0,1,1.87-2.28,5.34,5.34,0,0,1,3-.92h14.81Z"/><polygon class="cls-2" points="229.82 96.34 181.83 72.11 129.15 98.4 178.44 123.16 229.82 96.34"/><polygon class="cls-2" points="251.82 107.45 302.15 132.85 249.94 159.07 200.56 134.27 251.82 107.45"/><polygon class="cls-2" points="319.04 72.48 370.73 98.4 324.5 121.63 274.07 96.19 319.04 72.48"/><polygon class="cls-2" points="296.78 61.32 250.24 37.98 204.2 60.95 252.16 85.14 296.78 61.32"/><polygon class="cls-2" points="260.39 261.73 260.39 325.25 316.78 297.11 316.72 233.57 260.39 261.73"/><polygon class="cls-2" points="316.7 211.39 316.63 148.52 260.39 176.47 260.39 239.37 316.7 211.39"/><polygon class="cls-2" points="384.39 199.61 384.39 263.37 336.3 287.37 336.26 223.9 384.39 199.61"/><polygon class="cls-2" points="384.39 177.31 384.39 114.84 336.21 138.79 336.25 201.78 384.39 177.31"/><path class="cls-1" d="M240.49,176.47l-38-19.09v82.5s-46.44-98.82-50.75-107.7c-.55-1.15-2.83-2.4-3.42-2.71-8.36-4.37-32.73-16.73-32.73-16.73V258.57l33.76,18.05V200.4s45.95,88.31,46.42,89.27,5.08,10.27,10,13.54c6.57,4.35,34.7,21.27,34.7,21.27Z"/></g></svg>