<svg width="500" height="500" viewBox="0 0 500 500" fill="none" xmlns="http://www.w3.org/2000/svg">
<path d="M69.74 353.65C70.2892 353.715 70.8254 353.864 71.33 354.09C71.8298 354.327 72.2915 354.637 72.7 355.01C73.2255 355.513 73.7197 356.047 74.18 356.61L115.18 408.45C115.02 406.79 114.9 405.18 114.82 403.63C114.74 402.08 114.7 400.63 114.7 399.21V353.53H132.38V439.85H121.93C120.592 439.886 119.26 439.644 118.02 439.14C116.795 438.535 115.738 437.639 114.94 436.53L74.24 385.11C74.36 386.61 74.46 388.08 74.54 389.52C74.61 390.96 74.65 392.31 74.65 393.58V439.85H57V353.53H67.54C68.2752 353.522 69.0101 353.562 69.74 353.65Z" fill="#4D77CF"/>
<path d="M161.38 378.41V417.41C161.38 420.45 162.07 422.8 163.45 424.46C164.213 425.311 165.16 425.977 166.218 426.409C167.277 426.84 168.42 427.025 169.56 426.95C171.514 426.963 173.445 426.536 175.21 425.7C177.083 424.796 178.811 423.62 180.34 422.21V378.41H198.71V439.85H187.38C186.39 439.934 185.401 439.673 184.581 439.112C183.761 438.551 183.16 437.723 182.88 436.77L181.75 433.21C180.599 434.332 179.373 435.375 178.08 436.33C176.815 437.261 175.454 438.056 174.02 438.7C172.525 439.367 170.968 439.882 169.37 440.24C167.579 440.625 165.752 440.813 163.92 440.8C160.856 440.856 157.816 440.259 155 439.05C152.477 437.937 150.238 436.269 148.45 434.17C146.639 431.989 145.28 429.471 144.45 426.76C143.511 423.73 143.049 420.572 143.08 417.4V378.4L161.38 378.41Z" fill="#4D77CF"/>
<path d="M210.57 439.85V378.41H221.94C222.952 378.376 223.951 378.644 224.81 379.18C225.613 379.734 226.191 380.557 226.44 381.5L227.44 384.81C228.442 383.765 229.511 382.787 230.64 381.88C232.908 380.044 235.549 378.727 238.38 378.02C239.98 377.629 241.623 377.441 243.27 377.46C246.579 377.328 249.832 378.342 252.48 380.33C254.984 382.341 256.898 384.991 258.02 388C258.993 386.179 260.268 384.535 261.79 383.14C263.221 381.831 264.835 380.736 266.58 379.89C268.311 379.048 270.143 378.43 272.03 378.05C273.911 377.657 275.828 377.46 277.75 377.46C280.94 377.402 284.113 377.934 287.11 379.03C289.72 379.991 292.067 381.553 293.96 383.59C295.861 385.714 297.286 388.22 298.14 390.94C299.126 394.132 299.605 397.459 299.56 400.8V439.8H281.19V400.8C281.19 394.44 278.463 391.26 273.01 391.26C271.865 391.226 270.725 391.427 269.661 391.85C268.596 392.273 267.629 392.91 266.82 393.72C265.18 395.36 264.36 397.72 264.36 400.8V439.8H246V400.8C246 397.28 245.3 394.8 243.92 393.39C242.54 391.98 240.5 391.26 237.82 391.26C236.184 391.258 234.57 391.641 233.11 392.38C231.576 393.168 230.167 394.179 228.93 395.38V439.81L210.57 439.85Z" fill="#4D77CF"/>
<path d="M330.24 411.02V439.87H310.24V353.53H340.69C346.002 353.416 351.297 354.145 356.38 355.69C360.352 356.926 364.025 358.968 367.17 361.69C369.937 364.131 372.077 367.2 373.41 370.64C374.774 374.19 375.452 377.967 375.41 381.77C375.457 385.814 374.756 389.831 373.34 393.62C371.99 397.159 369.817 400.327 367 402.86C363.852 405.594 360.166 407.638 356.18 408.86C351.159 410.403 345.922 411.132 340.67 411.02H330.24ZM330.24 395.91H340.67C345.877 395.91 349.63 394.667 351.93 392.18C354.23 389.693 355.38 386.21 355.38 381.73C355.402 379.895 355.1 378.071 354.49 376.34C353.922 374.761 352.998 373.334 351.79 372.17C350.491 370.941 348.933 370.019 347.23 369.47C345.114 368.796 342.901 368.475 340.68 368.52H330.24V395.91Z" fill="#4D77CF"/>
<path d="M410.94 455.79C410.553 456.977 409.756 457.986 408.69 458.637C407.625 459.288 406.363 459.537 405.13 459.34H391.38L403.23 434.47L378.7 378.41H394.93C396.113 378.34 397.284 378.675 398.25 379.36C399.002 379.941 399.577 380.72 399.91 381.61L409.98 408.1C410.913 410.492 411.685 412.944 412.29 415.44C412.69 414.18 413.12 412.93 413.59 411.71C414.06 410.49 414.52 409.25 414.96 407.98L424.08 381.61C424.435 380.665 425.093 379.863 425.95 379.33C426.836 378.73 427.881 378.409 428.95 378.41H443.76L410.94 455.79Z" fill="#4D77CF"/>
<path d="M230.2 98.3601L182.21 74.1301L129.53 100.42L178.82 125.18L230.2 98.3601Z" fill="#4DABCF"/>
<path d="M252.2 109.47L302.53 134.87L250.32 161.09L200.94 136.29L252.2 109.47Z" fill="#4DABCF"/>
<path d="M319.42 74.5L371.11 100.42L324.88 123.65L274.45 98.21L319.42 74.5Z" fill="#4DABCF"/>
<path d="M297.16 63.34L250.62 40L204.58 62.97L252.54 87.16L297.16 63.34Z" fill="#4DABCF"/>
<path d="M260.77 263.75V327.27L317.16 299.13L317.1 235.59L260.77 263.75Z" fill="#4DABCF"/>
<path d="M317.08 213.41L317.01 150.54L260.77 178.49V241.39L317.08 213.41Z" fill="#4DABCF"/>
<path d="M384.77 201.63V265.39L336.68 289.39L336.64 225.92L384.77 201.63Z" fill="#4DABCF"/>
<path d="M384.77 179.33V116.86L336.59 140.81L336.63 203.8L384.77 179.33Z" fill="#4DABCF"/>
<path d="M240.87 178.49L202.87 159.4V241.9C202.87 241.9 156.43 143.08 152.12 134.2C151.57 133.05 149.29 131.8 148.7 131.49C140.34 127.12 115.97 114.76 115.97 114.76V260.59L149.73 278.64V202.42C149.73 202.42 195.68 290.73 196.15 291.69C196.62 292.65 201.23 301.96 206.15 305.23C212.72 309.58 240.85 326.5 240.85 326.5L240.87 178.49Z" fill="#4D77CF"/>
</svg>
