<?xml version="1.0" encoding="UTF-8" standalone="no"?>
<!-- Created with Inkscape (http://www.inkscape.org/) -->

<svg
   width="215.56395mm"
   height="140.59219mm"
   viewBox="0 0 215.56395 140.59219"
   version="1.1"
   id="svg92220"
   inkscape:version="1.1 (c68e22c387, 2021-05-23)"
   sodipodi:docname="broadcasting-figure-5.svg"
   xmlns:inkscape="http://www.inkscape.org/namespaces/inkscape"
   xmlns:sodipodi="http://sodipodi.sourceforge.net/DTD/sodipodi-0.dtd"
   xmlns="http://www.w3.org/2000/svg"
   xmlns:svg="http://www.w3.org/2000/svg">
  <sodipodi:namedview
     id="namedview92222"
     pagecolor="#005400"
     bordercolor="#666666"
     borderopacity="1.0"
     inkscape:pageshadow="2"
     inkscape:pageopacity="0"
     inkscape:pagecheckerboard="0"
     inkscape:document-units="mm"
     showgrid="false"
     showguides="true"
     inkscape:guide-bbox="true"
     inkscape:zoom="1.1209083"
     inkscape:cx="592.8228"
     inkscape:cy="219.91094"
     inkscape:window-width="1920"
     inkscape:window-height="1001"
     inkscape:window-x="-9"
     inkscape:window-y="-9"
     inkscape:window-maximized="1"
     inkscape:current-layer="g112380"
     fit-margin-top="5"
     lock-margins="true"
     fit-margin-left="5"
     fit-margin-right="5"
     fit-margin-bottom="5" />
  <defs
     id="defs92217">
    <rect
       x="-230.06293"
       y="897.24542"
       width="189.16286"
       height="182.77222"
       id="rect97145" />
  </defs>
  <g
     inkscape:label="Layer 1"
     inkscape:groupmode="layer"
     id="layer1"
     transform="translate(1.916979,2.2534185)">
    <text
       xml:space="preserve"
       transform="scale(0.26458333)"
       id="text97143"
       style="font-style:italic;font-stretch:condensed;font-size:39.9999px;line-height:1.25;font-family:Arial;-inkscape-font-specification:'Arial, Italic Condensed';white-space:pre;shape-inside:url(#rect97145)" />
    <g
       style="fill:none;stroke:none;stroke-linecap:square;stroke-miterlimit:10"
       id="g112380"
       transform="matrix(0.34260659,0,0,0.35200053,2.6364747,2.279811)">
      <path
         fill="#ffffff"
         d="M 1.3033791,1.3260505 H 601.30337 V 372.32605 H 1.3033791 Z"
         fill-rule="nonzero"
         id="path112290" />
      <path
         stroke="#cccccc"
         stroke-width="1"
         stroke-linecap="butt"
         d="m 77.5,61.5 v 239"
         fill-rule="nonzero"
         id="path112292" />
      <path
         stroke="#cccccc"
         stroke-width="1"
         stroke-linecap="butt"
         d="m 203.5,61.5 v 239"
         fill-rule="nonzero"
         id="path112294" />
      <path
         stroke="#cccccc"
         stroke-width="1"
         stroke-linecap="butt"
         d="m 329.5,61.5 v 239"
         fill-rule="nonzero"
         id="path112296" />
      <path
         stroke="#cccccc"
         stroke-width="1"
         stroke-linecap="butt"
         d="m 455.5,61.5 v 239"
         fill-rule="nonzero"
         id="path112298" />
      <path
         stroke="#cccccc"
         stroke-width="1"
         stroke-linecap="butt"
         d="m 581.5,61.5 v 239"
         fill-rule="nonzero"
         id="path112300" />
      <path
         stroke="#cccccc"
         stroke-width="1"
         stroke-linecap="butt"
         d="m 77.5,300.5 h 504"
         fill-rule="nonzero"
         id="path112302" />
      <path
         stroke="#cccccc"
         stroke-width="1"
         stroke-linecap="butt"
         d="m 77.5,220.5 h 504"
         fill-rule="nonzero"
         id="path112304" />
      <path
         stroke="#cccccc"
         stroke-width="1"
         stroke-linecap="butt"
         d="m 77.5,141.5 h 504"
         fill-rule="nonzero"
         id="path112306" />
      <path
         stroke="#cccccc"
         stroke-width="1"
         stroke-linecap="butt"
         d="m 77.5,61.5 h 504"
         fill-rule="nonzero"
         id="path112308" />
      <path
         fill="#4285f4"
         clip-path="url(#id_0)"
         d="m 394.468,100.082 c 0,2.48528 -2.01472,4.5 -4.5,4.5 -2.48527,0 -4.5,-2.01472 -4.5,-4.5 0,-2.48528 2.01473,-4.5 4.5,-4.5 2.48528,0 4.5,2.01472 4.5,4.5 z"
         fill-rule="nonzero"
         id="path112313"
         style="fill:#000000" />
      <path
         fill="#4285f4"
         clip-path="url(#id_0)"
         d="m 545.638,131.88644 c 0,2.48528 -2.0147,4.5 -4.5,4.5 -2.4853,0 -4.5,-2.01472 -4.5,-4.5 0,-2.48527 2.0147,-4.5 4.5,-4.5 2.4853,0 4.5,2.01473 4.5,4.5 z"
         fill-rule="nonzero"
         id="path112315"
         style="fill:#000000" />
      <path
         fill="#4285f4"
         clip-path="url(#id_0)"
         d="m 107.245,252.74333 c 0,2.48527 -2.01472,4.50002 -4.5,4.50002 -2.48528,0 -4.5,-2.01475 -4.5,-4.50002 0,-2.48527 2.01472,-4.5 4.5,-4.5 2.48528,0 4.5,2.01473 4.5,4.5 z"
         fill-rule="nonzero"
         id="path112317"
         style="fill:#000000" />
      <path
         fill="#4285f4"
         clip-path="url(#id_0)"
         d="m 167.713,195.49533 c 0,2.48529 -2.01471,4.5 -4.5,4.5 -2.48528,0 -4.5,-2.01471 -4.5,-4.5 0,-2.48527 2.01472,-4.5 4.5,-4.5 2.48529,0 4.5,2.01473 4.5,4.5 z"
         fill-rule="nonzero"
         id="path112319"
         style="fill:#000000" />
      <path
         fill="#000000"
         d="m 312.92188,349.45 -2.28126,-8.59374 h 1.17188 l 1.3125,5.64064 q 0.20312,0.875 0.35938,1.75 0.32812,-1.375 0.39062,-1.59376 l 1.625,-5.79688 h 1.375 l 1.23438,4.34374 q 0.45312,1.625 0.67187,3.0469 0.15625,-0.8125 0.42187,-1.875 l 1.34376,-5.51564 h 1.14062 l -2.34375,8.59374 h -1.10937 l -1.79688,-6.54686 q -0.23438,-0.8125 -0.28125,-1 -0.125,0.57812 -0.25,1 l -1.8125,6.54686 z m 13.625,-2 1.09374,0.125 q -0.25,0.95314 -0.95312,1.4844 -0.70312,0.53124 -1.78125,0.53124 -1.35937,0 -2.17187,-0.84374 -0.79688,-0.84376 -0.79688,-2.3594 0,-1.5625 0.8125,-2.42186 0.8125,-0.875 2.09375,-0.875 1.25,0 2.03125,0.84376 0.79688,0.84374 0.79688,2.3906 0,0.0938 0,0.28126 h -4.64063 q 0.0625,1.03124 0.57813,1.57814 0.51562,0.53124 1.29687,0.53124 0.57813,0 0.98437,-0.29688 0.42188,-0.3125 0.65626,-0.96876 z m -3.45313,-1.7031 h 3.46875 q -0.0625,-0.7969 -0.39062,-1.1875 -0.51563,-0.6094 -1.3125,-0.6094 -0.73438,0 -1.23438,0.4844 -0.48438,0.48436 -0.53125,1.3125 z m 6.20313,-3.6719 v -1.21874 h 1.0625 v 1.21874 z m 0,7.375 v -6.21874 h 1.0625 V 349.45 Z m 2.79687,0.51564 1.03125,0.15626 q 0.0625,0.46874 0.35938,0.6875 0.39062,0.29686 1.0625,0.29686 0.73437,0 1.125,-0.29686 0.40624,-0.2969 0.54687,-0.8125 0.0937,-0.32814 0.0781,-1.3594 -0.6875,0.8125 -1.71876,0.8125 -1.28124,0 -1.98437,-0.92186 -0.70313,-0.9375 -0.70313,-2.21874 0,-0.89064 0.3125,-1.64064 0.32813,-0.76562 0.9375,-1.17186 0.60938,-0.40626 1.4375,-0.40626 1.10938,0 1.82813,0.89062 v -0.75 h 0.96875 v 5.375 q 0,1.45314 -0.29688,2.0625 -0.29687,0.60938 -0.9375,0.95314 -0.64062,0.35936 -1.57812,0.35936 -1.10938,0 -1.79688,-0.5 -0.6875,-0.5 -0.67187,-1.51562 z m 0.875,-3.73438 q 0,1.21874 0.48437,1.78124 0.48438,0.5625 1.21876,0.5625 0.73437,0 1.21874,-0.5625 0.5,-0.5625 0.5,-1.75 0,-1.1406 -0.51562,-1.71874 -0.5,-0.57812 -1.21875,-0.57812 -0.70313,0 -1.20313,0.57812 -0.48437,0.5625 -0.48437,1.6875 z m 6.32813,3.21874 v -8.59374 h 1.04687 v 3.07814 q 0.73437,-0.84376 1.85937,-0.84376 0.70313,0 1.20313,0.28126 0.51563,0.2656 0.73437,0.75 0.21876,0.46874 0.21876,1.3906 v 3.9375 h -1.04688 v -3.9375 q 0,-0.79686 -0.34375,-1.15624 Q 342.625,343.9969 342,343.9969 q -0.46875,0 -0.89062,0.25 -0.40626,0.23436 -0.59376,0.65624 -0.17187,0.40626 -0.17187,1.14062 V 349.45 Z m 9.29687,-0.9375 0.15625,0.9219 q -0.45312,0.0937 -0.79688,0.0937 -0.57812,0 -0.89062,-0.17188 -0.3125,-0.1875 -0.45312,-0.48436 -0.125,-0.2969 -0.125,-1.25 v -3.57814 h -0.76563 v -0.8125 h 0.76563 v -1.54686 l 1.04687,-0.625 v 2.17186 h 1.0625 v 0.8125 h -1.0625 v 3.64064 q 0,0.4531 0.0469,0.5781 0.0625,0.125 0.1875,0.20314 0.125,0.0781 0.35938,0.0781 0.1875,0 0.46875,-0.0313 z"
         fill-rule="nonzero"
         id="path112323" />
      <path
         fill="#000000"
         d="m 29.550013,204.71458 h -8.59375 v -1.125 h 3.53125 v -4.46875 h -3.53125 v -1.14062 h 8.59375 v 1.14062 h -4.046875 v 4.46875 h 4.046875 z m -2,-13.07812 0.125,-1.09375 q 0.953125,0.25 1.484375,0.95312 0.53125,0.70313 0.53125,1.78125 0,1.35938 -0.84375,2.17188 -0.84375,0.79687 -2.359375,0.79687 -1.5625,0 -2.421875,-0.8125 -0.875,-0.8125 -0.875,-2.09375 0,-1.25 0.84375,-2.03125 0.84375,-0.79687 2.390625,-0.79687 0.09375,0 0.28125,0 v 4.64062 q 1.03125,-0.0625 1.578125,-0.57812 0.53125,-0.51563 0.53125,-1.29688 0,-0.57812 -0.296875,-0.98437 -0.3125,-0.42188 -0.96875,-0.65625 z m -1.703125,3.45312 v -3.46875 q -0.796875,0.0625 -1.1875,0.39063 -0.609375,0.51562 -0.609375,1.3125 0,0.73437 0.484375,1.23437 0.484375,0.48438 1.3125,0.53125 z m -3.671875,-6.20312 h -1.21875 v -1.0625 h 1.21875 z m 7.375,0 h -6.21875 v -1.0625 h 6.21875 z m 0.515625,-2.79688 0.15625,-1.03125 q 0.46875,-0.0625 0.6875,-0.35937 0.296875,-0.39063 0.296875,-1.0625 0,-0.73438 -0.296875,-1.125 -0.296875,-0.40625 -0.8125,-0.54688 -0.328125,-0.0937 -1.359375,-0.0781 0.8125,0.6875 0.8125,1.71875 0,1.28125 -0.921875,1.98437 -0.9375,0.70313 -2.21875,0.70313 -0.890625,0 -1.640625,-0.3125 -0.765625,-0.32813 -1.171875,-0.9375 -0.40625,-0.60938 -0.40625,-1.4375 0,-1.10938 0.890625,-1.82813 h -0.75 v -0.96875 h 5.375 q 1.453125,0 2.0625,0.29688 0.609375,0.29687 0.953125,0.9375 0.359372,0.64062 0.359372,1.57812 0,1.10938 -0.499997,1.79688 -0.5,0.6875 -1.515625,0.67187 z m -3.734375,-0.875 q 1.21875,0 1.78125,-0.48437 0.5625,-0.48438 0.5625,-1.21875 0,-0.73438 -0.5625,-1.21875 -0.5625,-0.5 -1.75,-0.5 -1.140625,0 -1.71875,0.51562 -0.578125,0.5 -0.578125,1.21875 0,0.70313 0.578125,1.20313 0.5625,0.48437 1.6875,0.48437 z m 3.21875,-6.32812 h -8.59375 v -1.04688 h 3.078125 q -0.84375,-0.73437 -0.84375,-1.85937 0,-0.70313 0.28125,-1.20313 0.265625,-0.51562 0.75,-0.73437 0.46875,-0.21875 1.390625,-0.21875 h 3.9375 v 1.04687 h -3.9375 q -0.796875,0 -1.15625,0.34375 -0.359375,0.34375 -0.359375,0.96875 0,0.46875 0.25,0.89063 0.234375,0.40625 0.65625,0.59375 0.40625,0.17187 1.140625,0.17187 h 3.40625 z m -0.9375,-9.29688 0.921875,-0.15625 q 0.09375,0.45313 0.09375,0.79688 0,0.57812 -0.171875,0.89062 -0.1875,0.3125 -0.484375,0.45313 -0.296875,0.125 -1.25,0.125 h -3.578125 v 0.76562 h -0.8125 v -0.76562 h -1.546875 l -0.625,-1.04688 h 2.171875 v -1.0625 h 0.8125 v 1.0625 h 3.640625 q 0.453125,0 0.578125,-0.0469 0.125,-0.0625 0.203125,-0.1875 0.07813,-0.125 0.07813,-0.35938 0,-0.1875 -0.03125,-0.46875 z"
         fill-rule="nonzero"
         id="path112325" />
      <path
         fill="#000000"
         d="m 55.01875,304.45 h -1.046876 v -6.71874 q -0.390624,0.35938 -1.015624,0.73438 -0.609376,0.35936 -1.09375,0.53126 v -1.01564 q 0.875,-0.42186 1.53125,-1 0.671874,-0.59376 0.953124,-1.15626 h 0.671876 z m 6.40625,0 v -2.0625 h -3.71875 v -0.96874 l 3.921874,-5.5625 H 62.4875 v 5.5625 h 1.15625 v 0.96874 H 62.4875 v 2.0625 z m 0,-3.03124 v -3.85936 l -2.6875,3.85936 z m 3.625,-1.20312 q 0,-1.53124 0.3125,-2.45314 0.3125,-0.9375 0.92188,-1.4375 0.625,-0.5 1.5625,-0.5 0.6875,0 1.20312,0.28126 0.53125,0.28124 0.875,0.8125 0.34375,0.51564 0.53125,1.26564 0.1875,0.75 0.1875,2.03124 0,1.51562 -0.3125,2.4375 -0.29687,0.92186 -0.92187,1.4375 -0.60938,0.5 -1.5625,0.5 -1.23438,0 -1.95313,-0.89064 Q 65.05,302.6375 65.05,300.21564 Z m 1.07813,0 q 0,2.10936 0.5,2.8125 0.5,0.70312 1.21875,0.70312 0.73437,0 1.21875,-0.70312 0.5,-0.70314 0.5,-2.8125 0,-2.125 -0.5,-2.8125 Q 68.58125,296.7 67.83125,296.7 q -0.71875,0 -1.15625,0.6094 -0.54687,0.78124 -0.54687,2.90624 z"
         fill-rule="nonzero"
         id="path112327" />
      <path
         fill="#000000"
         d="m 55.01875,224.93889 h -1.046876 v -6.71875 q -0.390624,0.35937 -1.015624,0.73437 -0.609376,0.35938 -1.09375,0.53125 v -1.01562 q 0.875,-0.42188 1.53125,-1 0.671874,-0.59375 0.953124,-1.15625 h 0.671876 z m 8.5,-6.48438 -1.046876,0.0781 q -0.140624,-0.625 -0.390624,-0.90625 -0.4375,-0.45313 -1.0625,-0.45313 -0.5,0 -0.890626,0.28125 -0.484374,0.375 -0.78125,1.07813 -0.28125,0.6875 -0.296874,1.96875 0.375,-0.57813 0.921874,-0.85938 0.5625,-0.28125 1.171876,-0.28125 1.046874,0 1.78125,0.78125 0.75,0.78125 0.75,2 0,0.8125 -0.359376,1.51563 -0.34375,0.6875 -0.953124,1.0625 -0.609376,0.35937 -1.375,0.35937 -1.328126,0 -2.15625,-0.96875 -0.828126,-0.96875 -0.828126,-3.1875 0,-2.5 0.921876,-3.625 0.796874,-0.98437 2.15625,-0.98437 1.015624,0 1.65625,0.57812 0.65625,0.5625 0.78125,1.5625 z m -4.296876,3.70313 q 0,0.54687 0.21875,1.04687 0.234376,0.48438 0.640626,0.75 0.421874,0.26563 0.890624,0.26563 0.65625,0 1.140626,-0.53125 0.484374,-0.54688 0.484374,-1.46875 0,-0.89063 -0.484374,-1.40625 -0.46875,-0.51563 -1.1875,-0.51563 -0.71875,0 -1.21875,0.51563 -0.484376,0.51562 -0.484376,1.34375 z m 5.828126,0.53125 1.10938,-0.0937 q 0.125,0.8125 0.5625,1.21875 0.45312,0.40625 1.09375,0.40625 0.75,0 1.28125,-0.57813 0.53125,-0.57812 0.53125,-1.51562 0,-0.90625 -0.51563,-1.42188 -0.5,-0.53125 -1.32812,-0.53125 -0.5,0 -0.92188,0.23438 -0.40625,0.23437 -0.64062,0.59375 l -0.98438,-0.125 0.82813,-4.40625 h 4.28125 v 1 h -3.4375 l -0.45313,2.3125 q 0.76563,-0.54688 1.60938,-0.54688 1.125,0 1.89062,0.78125 0.78125,0.78125 0.78125,2.01563 0,1.15625 -0.67187,2.01562 -0.82813,1.03125 -2.25,1.03125 -1.17188,0 -1.92188,-0.65625 -0.73437,-0.65625 -0.84375,-1.73437 z"
         fill-rule="nonzero"
         id="path112329" />
      <path
         fill="#000000"
         d="m 55.01875,145.42778 h -1.046876 v -6.71875 q -0.390624,0.35937 -1.015624,0.73437 -0.609376,0.35938 -1.09375,0.53126 v -1.01563 q 0.875,-0.42187 1.53125,-1 0.671874,-0.59375 0.953124,-1.15625 h 0.671876 z m 3.1875,-1.98438 1.015624,-0.0937 q 0.125,0.71874 0.484376,1.04687 0.375,0.3125 0.9375,0.3125 0.484374,0 0.84375,-0.21875 0.375,-0.23438 0.609374,-0.59375 0.234376,-0.375 0.390626,-1 0.15625,-0.64063 0.15625,-1.29687 0,-0.0781 0,-0.21876 -0.3125,0.5 -0.859376,0.82813 -0.546874,0.3125 -1.1875,0.3125 -1.078124,0 -1.8125,-0.76563 Q 58.05,140.97466 58.05,139.70903 q 0,-1.3125 0.765624,-2.10937 0.78125,-0.79688 1.9375,-0.79688 0.828126,0 1.515626,0.45312 0.703124,0.45313 1.0625,1.29688 0.359374,0.82812 0.359374,2.40625 0,1.64063 -0.359374,2.625 -0.34375,0.96875 -1.0625,1.48437 -0.703126,0.5 -1.640626,0.5 -1.015624,0 -1.65625,-0.54687 -0.640624,-0.5625 -0.765624,-1.57813 z m 4.3125,-3.79687 q 0,-0.90625 -0.484376,-1.4375 -0.46875,-0.53125 -1.15625,-0.53125 -0.703124,0 -1.234374,0.57812 -0.515626,0.5625 -0.515626,1.48438 0,0.8125 0.5,1.32812 0.5,0.51563 1.21875,0.51563 0.734376,0 1.203126,-0.51563 0.46875,-0.51562 0.46875,-1.42187 z M 65.05,141.1934 q 0,-1.53124 0.3125,-2.45312 0.3125,-0.9375 0.92188,-1.4375 0.625,-0.5 1.5625,-0.5 0.6875,0 1.20312,0.28125 0.53125,0.28125 0.875,0.8125 0.34375,0.51563 0.53125,1.26563 0.1875,0.75 0.1875,2.03124 0,1.51563 -0.3125,2.4375 -0.29687,0.92188 -0.92187,1.4375 -0.60938,0.5 -1.5625,0.5 -1.23438,0 -1.95313,-0.89062 Q 65.05,143.61528 65.05,141.1934 Z m 1.07813,0 q 0,2.10938 0.5,2.8125 0.5,0.70313 1.21875,0.70313 0.73437,0 1.21875,-0.70313 0.5,-0.70312 0.5,-2.8125 0,-2.125 -0.5,-2.8125 -0.48438,-0.70312 -1.23438,-0.70312 -0.71875,0 -1.15625,0.60938 -0.54687,0.78124 -0.54687,2.90624 z"
         fill-rule="nonzero"
         id="path112331" />
      <path
         fill="#000000"
         d="m 56.596874,64.90104 v 1.015624 h -5.6875 q 0,-0.375 0.125,-0.734374 0.21875,-0.578126 0.6875,-1.140626 0.484376,-0.5625 1.390626,-1.296874 1.40625,-1.15625 1.890624,-1.828126 0.5,-0.671874 0.5,-1.265624 0,-0.625 -0.453124,-1.046876 -0.453126,-0.4375 -1.171876,-0.4375 -0.765624,0 -1.21875,0.453126 -0.453124,0.453124 -0.46875,1.265624 L 51.1125,59.77604 q 0.109374,-1.21875 0.828124,-1.84375 0.734376,-0.640626 1.96875,-0.640626 1.234376,0 1.953126,0.6875 0.71875,0.6875 0.71875,1.703126 0,0.515624 -0.21875,1.015624 -0.203126,0.484376 -0.703126,1.046876 -0.484374,0.546874 -1.609374,1.5 -0.953126,0.796874 -1.234376,1.09375 -0.265624,0.28125 -0.4375,0.5625 z m 5.421876,1.015624 h -1.046876 v -6.71875 Q 60.58125,59.55729 59.95625,59.93229 59.346874,60.291664 58.8625,60.46354 v -1.015626 q 0.875,-0.421874 1.53125,-1 0.671874,-0.59375 0.953124,-1.15625 h 0.671876 z m 3.03125,-2.25 1.10938,-0.09375 q 0.125,0.8125 0.5625,1.21875 0.45312,0.40625 1.09375,0.40625 0.75,0 1.28125,-0.578124 0.53125,-0.578126 0.53125,-1.515626 0,-0.90625 -0.51563,-1.421874 -0.5,-0.53125 -1.32812,-0.53125 -0.5,0 -0.92188,0.234374 -0.40625,0.234376 -0.64062,0.59375 l -0.98438,-0.125 0.82813,-4.40625 h 4.28125 v 1 h -3.4375 l -0.45313,2.3125 q 0.76563,-0.546874 1.60938,-0.546874 1.125,0 1.89062,0.78125 0.78125,0.78125 0.78125,2.015624 0,1.15625 -0.67187,2.015626 -0.82813,1.03125 -2.25,1.03125 -1.17188,0 -1.92188,-0.65625 Q 65.15938,64.74479 65.05,63.666664 Z"
         fill-rule="nonzero"
         id="path112333" />
      <path
         fill="#000000"
         d="m 74.425,317.45 v -2.0625 h -3.71875 v -0.96874 l 3.92188,-5.5625 h 0.85937 v 5.5625 h 1.15625 v 0.96874 H 75.4875 v 2.0625 z m 0,-3.03124 v -3.85936 l -2.6875,3.85936 z m 3.625,-1.20312 q 0,-1.53124 0.3125,-2.45314 0.3125,-0.9375 0.92188,-1.4375 0.625,-0.5 1.5625,-0.5 0.6875,0 1.20312,0.28126 0.53125,0.28124 0.875,0.8125 0.34375,0.51564 0.53125,1.26564 0.1875,0.75 0.1875,2.03124 0,1.51562 -0.3125,2.4375 -0.29687,0.92186 -0.92187,1.4375 -0.60938,0.5 -1.5625,0.5 -1.23438,0 -1.95313,-0.89064 Q 78.05,315.6375 78.05,313.21564 Z m 1.07813,0 q 0,2.10936 0.5,2.8125 0.5,0.70312 1.21875,0.70312 0.73437,0 1.21875,-0.70312 0.5,-0.70314 0.5,-2.8125 0,-2.125 -0.5,-2.8125 Q 81.58125,309.7 80.83125,309.7 q -0.71875,0 -1.15625,0.6094 -0.54687,0.78124 -0.54687,2.90624 z"
         fill-rule="nonzero"
         id="path112335" />
      <path
         fill="#000000"
         d="m 202.49374,310.96564 -1.04687,0.0781 q -0.14063,-0.625 -0.39063,-0.90626 -0.4375,-0.4531 -1.0625,-0.4531 -0.5,0 -0.89062,0.28124 -0.48438,0.375 -0.78125,1.07812 -0.28125,0.6875 -0.29687,1.96874 0.375,-0.5781 0.92187,-0.85936 0.5625,-0.28124 1.17187,-0.28124 1.04688,0 1.78126,0.78124 0.75,0.78126 0.75,2 0,0.8125 -0.35938,1.51562 -0.34375,0.6875 -0.95312,1.0625 -0.60938,0.35938 -1.375,0.35938 -1.32813,0 -2.15626,-0.96874 -0.82812,-0.96876 -0.82812,-3.1875 0,-2.5 0.92188,-3.625 0.79687,-0.9844 2.15624,-0.9844 1.01563,0 1.65626,0.57814 0.65624,0.5625 0.78124,1.5625 z m -4.29687,3.70312 q 0,0.54688 0.21875,1.04688 0.23438,0.48436 0.64062,0.75 0.42188,0.26562 0.89063,0.26562 0.65625,0 1.14063,-0.53126 0.48437,-0.54686 0.48437,-1.46874 0,-0.89062 -0.48437,-1.40626 -0.46876,-0.5156 -1.1875,-0.5156 -0.71876,0 -1.21876,0.5156 -0.48437,0.51564 -0.48437,1.34376 z m 5.82813,0.53124 1.10937,-0.0937 q 0.125,0.8125 0.5625,1.21874 0.45313,0.40626 1.09375,0.40626 0.75,0 1.28125,-0.57812 0.53125,-0.57814 0.53125,-1.51564 0,-0.90624 -0.51562,-1.42186 -0.5,-0.53124 -1.32813,-0.53124 -0.5,0 -0.92187,0.23436 -0.40626,0.23438 -0.64063,0.59374 l -0.98437,-0.125 0.82812,-4.40624 h 4.28125 v 1 h -3.4375 l -0.45313,2.3125 q 0.76563,-0.54686 1.60938,-0.54686 1.125,0 1.89062,0.78124 0.78126,0.78126 0.78126,2.01562 0,1.15624 -0.67188,2.01564 -0.82812,1.03124 -2.25,1.03124 -1.17188,0 -1.92188,-0.65624 -0.73437,-0.65626 -0.84374,-1.7344 z"
         fill-rule="nonzero"
         id="path112337" />
      <path
         fill="#000000"
         d="m 323.15625,315.46564 1.01563,-0.0937 q 0.125,0.71874 0.48437,1.04686 0.375,0.3125 0.9375,0.3125 0.48437,0 0.84375,-0.21876 0.375,-0.23436 0.60938,-0.59374 0.23437,-0.375 0.39062,-1 0.15625,-0.64062 0.15625,-1.29686 0,-0.0781 0,-0.21876 -0.3125,0.5 -0.85937,0.82812 -0.54688,0.3125 -1.1875,0.3125 -1.07813,0 -1.8125,-0.76562 Q 323,312.9969 323,311.73126 q 0,-1.3125 0.76562,-2.10936 0.78126,-0.7969 1.9375,-0.7969 0.82813,0 1.51563,0.45314 0.70313,0.45312 1.0625,1.29686 0.35937,0.82814 0.35937,2.40626 0,1.64064 -0.35937,2.625 -0.34375,0.96874 -1.0625,1.48438 -0.70313,0.5 -1.64063,0.5 -1.01562,0 -1.65624,-0.54688 -0.64063,-0.5625 -0.76563,-1.57812 z m 4.3125,-3.79688 q 0,-0.90626 -0.48437,-1.4375 -0.46876,-0.53126 -1.15626,-0.53126 -0.70312,0 -1.23437,0.57814 -0.51563,0.5625 -0.51563,1.48436 0,0.8125 0.5,1.32814 0.5,0.51562 1.21876,0.51562 0.73437,0 1.20312,-0.51562 0.46875,-0.51564 0.46875,-1.42188 z M 330,313.21564 q 0,-1.53124 0.3125,-2.45314 0.3125,-0.9375 0.92188,-1.4375 0.625,-0.5 1.5625,-0.5 0.6875,0 1.20312,0.28126 0.53125,0.28124 0.875,0.8125 0.34375,0.51564 0.53125,1.26564 0.1875,0.75 0.1875,2.03124 0,1.51562 -0.3125,2.4375 -0.29687,0.92186 -0.92187,1.4375 -0.60938,0.5 -1.5625,0.5 -1.23438,0 -1.95313,-0.89064 Q 330,315.6375 330,313.21564 Z m 1.07812,0 q 0,2.10936 0.5,2.8125 0.5,0.70312 1.21876,0.70312 0.73437,0 1.21874,-0.70312 0.5,-0.70314 0.5,-2.8125 0,-2.125 -0.5,-2.8125 -0.48437,-0.70314 -1.23437,-0.70314 -0.71875,0 -1.15625,0.6094 -0.54688,0.78124 -0.54688,2.90624 z"
         fill-rule="nonzero"
         id="path112339" />
      <path
         fill="#000000"
         d="m 449.44376,317.45 h -1.04688 v -6.71874 q -0.39062,0.35938 -1.01562,0.73438 -0.60938,0.35936 -1.09376,0.53126 v -1.01564 q 0.875,-0.42186 1.53126,-1 0.67187,-0.59376 0.95312,-1.15626 h 0.67188 z m 7,0 h -1.04688 v -6.71874 q -0.39062,0.35938 -1.01562,0.73438 -0.60938,0.35936 -1.09376,0.53126 v -1.01564 q 0.875,-0.42186 1.53126,-1 0.67187,-0.59376 0.95312,-1.15626 h 0.67188 z m 3.03124,-2.25 1.10938,-0.0937 q 0.125,0.8125 0.5625,1.21874 0.45312,0.40626 1.09375,0.40626 0.75,0 1.28125,-0.57812 0.53125,-0.57814 0.53125,-1.51564 0,-0.90624 -0.51563,-1.42186 -0.5,-0.53124 -1.32812,-0.53124 -0.5,0 -0.92188,0.23436 -0.40624,0.23438 -0.64062,0.59374 l -0.98438,-0.125 0.82813,-4.40624 h 4.28125 v 1 h -3.4375 l -0.45312,2.3125 q 0.76562,-0.54686 1.60937,-0.54686 1.125,0 1.89063,0.78124 0.78124,0.78126 0.78124,2.01562 0,1.15624 -0.67187,2.01564 -0.82813,1.03124 -2.25,1.03124 -1.17187,0 -1.92187,-0.65624 -0.73438,-0.65626 -0.84376,-1.7344 z"
         fill-rule="nonzero"
         id="path112341" />
      <path
         fill="#000000"
         d="m 575.41876,317.45 h -1.04686 v -6.71874 q -0.39064,0.35938 -1.01564,0.73438 -0.60936,0.35936 -1.09376,0.53126 v -1.01564 q 0.875,-0.42186 1.53126,-1 0.67188,-0.59376 0.95314,-1.15626 h 0.67186 z m 6.40624,0 v -2.0625 h -3.71874 v -0.96874 l 3.92188,-5.5625 h 0.85936 v 5.5625 h 1.15626 v 0.96874 h -1.15626 v 2.0625 z m 0,-3.03124 v -3.85936 l -2.6875,3.85936 z m 3.625,-1.20312 q 0,-1.53124 0.3125,-2.45314 0.3125,-0.9375 0.9219,-1.4375 0.625,-0.5 1.5625,-0.5 0.6875,0 1.2031,0.28126 0.53126,0.28124 0.875,0.8125 0.34376,0.51564 0.53126,1.26564 0.1875,0.75 0.1875,2.03124 0,1.51562 -0.3125,2.4375 -0.29686,0.92186 -0.92186,1.4375 -0.6094,0.5 -1.5625,0.5 -1.2344,0 -1.95314,-0.89064 -0.84376,-1.0625 -0.84376,-3.48436 z m 1.07814,0 q 0,2.10936 0.5,2.8125 0.5,0.70312 1.21876,0.70312 0.73436,0 1.21874,-0.70312 0.5,-0.70314 0.5,-2.8125 0,-2.125 -0.5,-2.8125 -0.48438,-0.70314 -1.23438,-0.70314 -0.71876,0 -1.15626,0.6094 -0.54686,0.78124 -0.54686,2.90624 z"
         fill-rule="nonzero"
         id="path112343" />
      <rect
         style="fill:#000000;stroke:#000000;stroke-width:1.15183;stroke-miterlimit:4;stroke-dasharray:none;stroke-opacity:1"
         id="rect112598"
         width="11.020167"
         height="9.0759048"
         x="428.62012"
         y="143.09004"
         ry="0" />
      <path
         style="fill:none;stroke:#000000;stroke-width:0.761891px;stroke-linecap:butt;stroke-linejoin:miter;stroke-opacity:1"
         d="M 434.5503,146.90838 162.4192,195.66656"
         id="path113258" />
      <path
         style="fill:none;stroke:#000000;stroke-width:0.761891px;stroke-linecap:butt;stroke-linejoin:miter;stroke-opacity:1"
         d="M 434.5503,146.90838 539.95869,131.9254"
         id="path113262" />
      <text
         xml:space="preserve"
         style="font-style:italic;font-variant:normal;font-weight:normal;font-stretch:condensed;font-size:14.8083px;line-height:1.25;font-family:Arial;-inkscape-font-specification:'Arial, Italic Condensed';font-variant-ligatures:normal;font-variant-caps:normal;font-variant-numeric:normal;font-variant-east-asian:normal;fill:#000000;stroke-width:0.761891"
         x="328.28354"
         y="78.15921"
         id="text114292"
         transform="scale(1.0136168,0.98656613)"><tspan
           sodipodi:role="line"
           id="tspan114290"
           style="font-style:italic;font-variant:normal;font-weight:normal;font-stretch:condensed;font-size:14.8083px;font-family:Arial;-inkscape-font-specification:'Arial, Italic Condensed';font-variant-ligatures:normal;font-variant-caps:normal;font-variant-numeric:normal;font-variant-east-asian:normal;fill:#000000;stroke-width:0.761891"
           x="328.28354"
           y="78.15921">basketball</tspan><tspan
           sodipodi:role="line"
           style="font-style:italic;font-variant:normal;font-weight:normal;font-stretch:condensed;font-size:14.8083px;font-family:Arial;-inkscape-font-specification:'Arial, Italic Condensed';font-variant-ligatures:normal;font-variant-caps:normal;font-variant-numeric:normal;font-variant-east-asian:normal;fill:#000000;stroke-width:0.761891"
           x="328.28354"
           y="96.669586"
           id="tspan114602">player</tspan></text>
      <text
         xml:space="preserve"
         style="font-style:italic;font-variant:normal;font-weight:normal;font-stretch:condensed;font-size:14.8083px;line-height:1.25;font-family:Arial;-inkscape-font-specification:'Arial, Italic Condensed';font-variant-ligatures:normal;font-variant-caps:normal;font-variant-numeric:normal;font-variant-east-asian:normal;fill:#000000;stroke-width:0.761891"
         x="415.56625"
         y="109.67815"
         id="text118086"
         transform="scale(1.0136168,0.98656613)"><tspan
           sodipodi:role="line"
           id="tspan118084"
           style="font-style:italic;font-variant:normal;font-weight:normal;font-stretch:condensed;font-size:14.8083px;font-family:Arial;-inkscape-font-specification:'Arial, Italic Condensed';font-variant-ligatures:normal;font-variant-caps:normal;font-variant-numeric:normal;font-variant-east-asian:normal;fill:#000000;stroke-width:0.761891"
           x="415.56625"
           y="109.67815">shortest</tspan><tspan
           sodipodi:role="line"
           style="font-style:italic;font-variant:normal;font-weight:normal;font-stretch:condensed;font-size:14.8083px;font-family:Arial;-inkscape-font-specification:'Arial, Italic Condensed';font-variant-ligatures:normal;font-variant-caps:normal;font-variant-numeric:normal;font-variant-east-asian:normal;fill:#000000;stroke-width:0.761891"
           x="415.56625"
           y="128.18852"
           id="tspan118638">distance</tspan></text>
      <text
         xml:space="preserve"
         style="font-style:italic;font-variant:normal;font-weight:normal;font-stretch:condensed;font-size:14.8083px;line-height:1.25;font-family:Arial;-inkscape-font-specification:'Arial, Italic Condensed';font-variant-ligatures:normal;font-variant-caps:normal;font-variant-numeric:normal;font-variant-east-asian:normal;fill:#000000;stroke-width:0.446669"
         x="504.48294"
         y="164.05591"
         id="text119852"
         transform="scale(1.0136168,0.98656613)"><tspan
           sodipodi:role="line"
           id="tspan119850"
           style="font-style:italic;font-variant:normal;font-weight:normal;font-stretch:condensed;font-size:14.8083px;font-family:Arial;-inkscape-font-specification:'Arial, Italic Condensed';font-variant-ligatures:normal;font-variant-caps:normal;font-variant-numeric:normal;font-variant-east-asian:normal;fill:#000000;stroke-width:0.446669"
           x="504.48294"
           y="164.05591">football</tspan><tspan
           sodipodi:role="line"
           style="font-style:italic;font-variant:normal;font-weight:normal;font-stretch:condensed;font-size:14.8083px;font-family:Arial;-inkscape-font-specification:'Arial, Italic Condensed';font-variant-ligatures:normal;font-variant-caps:normal;font-variant-numeric:normal;font-variant-east-asian:normal;fill:#000000;stroke-width:0.446669"
           x="504.48294"
           y="182.56631"
           id="tspan119876">lineman</tspan></text>
      <text
         xml:space="preserve"
         style="font-style:italic;font-variant:normal;font-weight:normal;font-stretch:condensed;font-size:14.8083px;line-height:1.25;font-family:Arial;-inkscape-font-specification:'Arial, Italic Condensed';font-variant-ligatures:normal;font-variant-caps:normal;font-variant-numeric:normal;font-variant-east-asian:normal;fill:#000000;stroke-width:0.391862"
         x="112.2299"
         y="168.39136"
         id="text121552"
         transform="scale(1.0136168,0.98656613)"><tspan
           sodipodi:role="line"
           id="tspan121550"
           style="font-style:italic;font-variant:normal;font-weight:normal;font-stretch:condensed;font-size:14.8083px;font-family:Arial;-inkscape-font-specification:'Arial, Italic Condensed';font-variant-ligatures:normal;font-variant-caps:normal;font-variant-numeric:normal;font-variant-east-asian:normal;fill:#000000;stroke-width:0.391862"
           x="112.2299"
           y="168.39136">marathon</tspan><tspan
           sodipodi:role="line"
           style="font-style:italic;font-variant:normal;font-weight:normal;font-stretch:condensed;font-size:14.8083px;font-family:Arial;-inkscape-font-specification:'Arial, Italic Condensed';font-variant-ligatures:normal;font-variant-caps:normal;font-variant-numeric:normal;font-variant-east-asian:normal;fill:#000000;stroke-width:0.391862"
           x="112.2299"
           y="186.90173"
           id="tspan121554">runner</tspan></text>
      <text
         xml:space="preserve"
         style="font-style:italic;font-stretch:condensed;font-size:14.8083px;line-height:1.25;font-family:Arial;-inkscape-font-specification:'Arial, Italic Condensed';fill:#000000;stroke-width:0.370208"
         x="119.85936"
         y="271.38208"
         id="text124154"
         transform="scale(1.0136168,0.98656613)"><tspan
           sodipodi:role="line"
           id="tspan124152"
           style="fill:#000000;stroke-width:0.370208"
           x="119.85936"
           y="271.38208">female</tspan><tspan
           sodipodi:role="line"
           style="fill:#000000;stroke-width:0.370208"
           x="119.85936"
           y="289.89246"
           id="tspan124156">gymnast</tspan></text>
      <text
         xml:space="preserve"
         style="font-style:italic;font-variant:normal;font-weight:normal;font-stretch:condensed;font-size:14.8083px;line-height:1.25;font-family:Arial;-inkscape-font-specification:'Arial, Italic Condensed';font-variant-ligatures:normal;font-variant-caps:normal;font-variant-numeric:normal;font-variant-east-asian:normal;fill:#000000;stroke-width:0.761891"
         x="383.78757"
         y="182.4346"
         id="text128880"
         transform="scale(1.0136168,0.98656613)"><tspan
           sodipodi:role="line"
           id="tspan128878"
           style="font-style:italic;font-variant:normal;font-weight:normal;font-stretch:condensed;font-size:14.8083px;font-family:Arial;-inkscape-font-specification:'Arial, Italic Condensed';font-variant-ligatures:normal;font-variant-caps:normal;font-variant-numeric:normal;font-variant-east-asian:normal;fill:#000000;stroke-width:0.761891"
           x="383.78757"
           y="182.4346">athlete to be</tspan><tspan
           sodipodi:role="line"
           style="font-style:italic;font-variant:normal;font-weight:normal;font-stretch:condensed;font-size:14.8083px;font-family:Arial;-inkscape-font-specification:'Arial, Italic Condensed';font-variant-ligatures:normal;font-variant-caps:normal;font-variant-numeric:normal;font-variant-east-asian:normal;fill:#000000;stroke-width:0.761891"
           x="383.78757"
           y="200.94498"
           id="tspan128882">classified</tspan></text>
      <path
         style="fill:none;stroke:#000000;stroke-width:1.33901;stroke-linecap:butt;stroke-linejoin:miter;stroke-miterlimit:10;stroke-dasharray:none;stroke-opacity:1"
         d="M 434.5503,146.90838 389.37758,99.902324"
         id="path132071" />
      <path
         style="fill:none;stroke:#000000;stroke-width:0.761891px;stroke-linecap:butt;stroke-linejoin:miter;stroke-opacity:1"
         d="M 434.5503,146.90838 101.22492,252.57671"
         id="path132073" />
    </g>
  </g>
</svg>
